<svg xmlns="http://www.w3.org/2000/svg" width="176.656" height="250" viewBox="0 0 176.656 250">
  <g id="img" transform="translate(-1004 -245)">
    <path id="교차_8" data-name="교차 8" d="M2230.846,992.7v-250h101.209a161.08,161.08,0,0,0-4.819,19.609h0l-.1.564c-4.374,24.812-2.879,50.469,4.444,76.258,7.107,25.021,19.7,50.19,37.422,74.807,18.434,25.6,31.527,52.062,38.5,78.762Z" transform="translate(-1226.846 -497.701)" opacity="0.15" style="mix-blend-mode: overlay;isolation: isolate"/>
    <path id="교차_5" data-name="교차 5" d="M2286.706,992.7l-18.381-210.1c1.978,22.616,9.258,44.6,21.641,65.336,12.014,20.121,28.832,39.091,49.985,56.385,28.149,23.011,49.023,49.284,60.9,78.067V992.7Zm-55.86,0v-250h33.985l21.872,250Zm33.988-250h5.48a147.328,147.328,0,0,0-2.034,39.388Z" transform="translate(-1226.846 -497.701)" opacity="0.15" style="mix-blend-mode: overlay;isolation: isolate"/>
  </g>
</svg>
