<svg xmlns="http://www.w3.org/2000/svg" width="1020.981" height="700.822" viewBox="0 0 1020.981 700.822">
  <path id="패스_8572" data-name="패스 8572" d="M-6672.193,4336.586a51.137,51.137,0,0,1,1.31,6.138c4.328,28.968-14.654,48.064-32.731,70.362-37.573,46.342-69.926,106-54.147,163.24,9.571,34.725,36.84,64.226,72.387,82.034a169.514,169.514,0,0,0,85,17.634c39.2-2.211,76.463-14.458,113.357-25.824,55.812-17.2,112.788-32.759,171.737-39.168,72.143-7.845,135.117,4.34,203.246,22.621,87.29,23.421,170.769,43.748,247.92-13.11,70.675-52.086,88.256-142.183,92.292-217.077,6.637-123.178-19.523-243.831-146.685-316.742a820.731,820.731,0,0,0-152.322-67.41c-219.585-72.016-462.855-55.225-651.487,66.067-32.723,21.041-60.817,41.564-67.314,78.2-8.04,45.346,23.987,83.3,62.5,111.9C-6704,4292.641-6679.087,4311.771-6672.193,4336.586Z" transform="translate(6791.403 -3975.955)" fill="none" stroke="#59946b" stroke-width="1"/>
</svg>
