<svg xmlns="http://www.w3.org/2000/svg" xmlns:xlink="http://www.w3.org/1999/xlink" width="1130" height="862" viewBox="0 0 1130 862">
  <defs>
    <clipPath id="clip-path">
      <rect width="216" height="50" fill="none"/>
    </clipPath>
  </defs>
  <g id="img-dummy12-web" transform="translate(-530 -420)">
    <g id="BODY" transform="translate(0 123)">
      <g id="page" transform="translate(25 -969)">
        <g id="_" data-name="&gt;&gt;" transform="translate(1273 2078)">
          <g id="bg" fill="#fff" stroke="#d0d5d5" stroke-width="1">
            <circle cx="25" cy="25" r="25" stroke="none"/>
            <circle cx="25" cy="25" r="24.5" fill="none"/>
          </g>
          <g id="icon" transform="translate(50) rotate(90)">
            <rect id="area" width="50" height="50" fill="none"/>
            <g id="icon-2" data-name="icon" transform="translate(18 19.625)">
              <path id="패스_250" data-name="패스 250" d="M0,6.5,6.5,0,13,6.5" transform="translate(0.5 4.25)" fill="none" stroke="#7f7f7f" stroke-width="2"/>
              <line id="선_205" data-name="선 205" x2="14" fill="none" stroke="#7f7f7f" stroke-width="2"/>
            </g>
          </g>
        </g>
        <g id="_2" data-name="&gt;" transform="translate(1213 2078)">
          <g id="bg-2" data-name="bg" fill="#fff" stroke="#d0d5d5" stroke-width="1">
            <circle cx="25" cy="25" r="25" stroke="none"/>
            <circle cx="25" cy="25" r="24.5" fill="none"/>
          </g>
          <g id="icon-3" data-name="icon" transform="translate(50) rotate(90)">
            <rect id="area-2" data-name="area" width="50" height="50" fill="none"/>
            <path id="패스_250-2" data-name="패스 250" d="M0,6.5,6.5,0,13,6.5" transform="translate(18.5 21.75)" fill="none" stroke="#7f7f7f" stroke-width="2"/>
          </g>
        </g>
        <g id="반복_그리드_12" data-name="반복 그리드 12" transform="translate(987 2078)" clip-path="url(#clip-path)">
          <g transform="translate(-987 -2078)">
            <g id="num" transform="translate(-26 -42)">
              <rect id="area-3" data-name="area" width="50" height="50" transform="translate(1017 2120)" fill="none"/>
              <text id="_2-2" data-name="2" transform="translate(1042 2152)" fill="#abb0b0" font-size="20" font-family="Roboto-Regular, Roboto" opacity="0.99"><tspan x="-5.615" y="0">2</tspan></text>
            </g>
            <circle id="타원_79" data-name="타원 79" cx="2" cy="2" r="2" transform="translate(987 2101)" fill="#d0d5d5"/>
          </g>
          <g transform="translate(-933 -2078)">
            <g id="num-2" data-name="num" transform="translate(-26 -42)">
              <rect id="area-4" data-name="area" width="50" height="50" transform="translate(1017 2120)" fill="none"/>
              <text id="_3" data-name="3" transform="translate(1042 2152)" fill="#abb0b0" font-size="20" font-family="Roboto-Regular, Roboto" opacity="0.99"><tspan x="-5.615" y="0">3</tspan></text>
            </g>
            <circle id="타원_79-2" data-name="타원 79" cx="2" cy="2" r="2" transform="translate(987 2101)" fill="#d0d5d5"/>
          </g>
          <g transform="translate(-879 -2078)">
            <g id="num-3" data-name="num" transform="translate(-26 -42)">
              <rect id="area-5" data-name="area" width="50" height="50" transform="translate(1017 2120)" fill="none"/>
              <text id="_4" data-name="4" transform="translate(1042 2152)" fill="#abb0b0" font-size="20" font-family="Roboto-Regular, Roboto" opacity="0.99"><tspan x="-5.615" y="0">4</tspan></text>
            </g>
            <circle id="타원_79-3" data-name="타원 79" cx="2" cy="2" r="2" transform="translate(987 2101)" fill="#d0d5d5"/>
          </g>
          <g transform="translate(-825 -2078)">
            <g id="num-4" data-name="num" transform="translate(-26 -42)">
              <rect id="area-6" data-name="area" width="50" height="50" transform="translate(1017 2120)" fill="none"/>
              <text id="_5" data-name="5" transform="translate(1042 2152)" fill="#abb0b0" font-size="20" font-family="Roboto-Regular, Roboto" opacity="0.99"><tspan x="-5.615" y="0">5</tspan></text>
            </g>
            <circle id="타원_79-4" data-name="타원 79" cx="2" cy="2" r="2" transform="translate(987 2101)" fill="#d0d5d5"/>
          </g>
        </g>
        <g id="num-5" data-name="num" transform="translate(-80 -42)">
          <rect id="area-7" data-name="area" width="50" height="50" transform="translate(1017 2120)" fill="none"/>
          <text id="_1" data-name="1" transform="translate(1042 2152)" fill="#575757" font-size="20" font-family="Roboto-Medium, Roboto" font-weight="500" opacity="0.99"><tspan x="-5.684" y="0">1</tspan></text>
        </g>
        <g id="_3-2" data-name="&lt;" transform="translate(877 2078)">
          <g id="bg-3" data-name="bg" fill="#fff" stroke="#d0d5d5" stroke-width="1">
            <circle cx="25" cy="25" r="25" stroke="none"/>
            <circle cx="25" cy="25" r="24.5" fill="none"/>
          </g>
          <g id="icon-4" data-name="icon" transform="translate(2541 -715) rotate(90)">
            <rect id="area-8" data-name="area" width="50" height="50" transform="translate(715 2491)" fill="none"/>
            <path id="패스_250-3" data-name="패스 250" d="M-1445.5,1867.5l6.5,6.5,6.5-6.5" transform="translate(2179 645.25)" fill="none" stroke="#7f7f7f" stroke-width="2"/>
          </g>
        </g>
        <g id="_4-2" data-name="&lt;&lt;" transform="translate(817 2078)">
          <g id="bg-4" data-name="bg" fill="#fff" stroke="#d0d5d5" stroke-width="1">
            <circle cx="25" cy="25" r="25" stroke="none"/>
            <circle cx="25" cy="25" r="24.5" fill="none"/>
          </g>
          <g id="icon-5" data-name="icon" transform="translate(2541 -715) rotate(90)">
            <rect id="area-9" data-name="area" width="50" height="50" transform="translate(715 2491)" fill="none"/>
            <g id="icon-6" data-name="icon" transform="translate(0 -2.125)">
              <path id="패스_250-4" data-name="패스 250" d="M-1445.5,1867.5l6.5,6.5,6.5-6.5" transform="translate(2179 645.25)" fill="none" stroke="#7f7f7f" stroke-width="2"/>
              <line id="선_205-2" data-name="선 205" x2="14" transform="translate(733 2523.5)" fill="none" stroke="#7f7f7f" stroke-width="2"/>
            </g>
          </g>
        </g>
      </g>
      <g id="head" transform="translate(530 367)">
        <g id="bg-5" data-name="bg" transform="translate(-530 -1136)">
          <rect id="bg-6" data-name="bg" width="1130" height="60" transform="translate(530 1136)" fill="none"/>
          <rect id="line" width="1130" height="1" transform="translate(530 1195)" fill="#dee3e3"/>
        </g>
        <text id="Q" transform="translate(0 16)" font-size="18" font-family="NotoSansCJKkr-Bold, Noto Sans CJK KR" font-weight="700" letter-spacing="-0.05em"><tspan x="-6.93" y="21">Q</tspan></text>
        <text id="이북5도위원회는_어디에_있나요_" data-name="이북5도위원회는 어디에 있나요? " transform="translate(90 16)" font-size="18" font-family="NotoSansCJKkr-Regular, Noto Sans CJK KR" letter-spacing="-0.05em"><tspan x="0" y="21">이북5도위원회는 어디에 있나요? </tspan></text>
        <g id="icon-7" data-name="icon" transform="translate(1120 49) rotate(-180)">
          <rect id="area-10" data-name="area" width="40" height="40" fill="none"/>
          <path id="패스_250-5" data-name="패스 250" d="M0,6.5,6.5,0,13,6.5" transform="translate(13.5 16.75)" fill="none" stroke="#7f7f7f" stroke-width="2"/>
        </g>
      </g>
      <g id="head-2" data-name="head" transform="translate(530 427)">
        <g id="bg-7" data-name="bg" transform="translate(-530 -1136)">
          <rect id="bg-8" data-name="bg" width="1130" height="60" transform="translate(530 1136)" fill="none"/>
          <rect id="line-2" data-name="line" width="1130" height="1" transform="translate(530 1195)" fill="#dee3e3"/>
        </g>
        <text id="Q-2" data-name="Q" transform="translate(0 16)" font-size="18" font-family="NotoSansCJKkr-Bold, Noto Sans CJK KR" font-weight="700" letter-spacing="-0.05em"><tspan x="-6.93" y="21">Q</tspan></text>
        <text id="시설예약을_하려면_어떻게_해야하나요_" data-name="시설예약을 하려면 어떻게 해야하나요?" transform="translate(90 16)" font-size="18" font-family="NotoSansCJKkr-Regular, Noto Sans CJK KR" letter-spacing="-0.05em"><tspan x="0" y="21">시설예약을 하려면 어떻게 해야하나요?</tspan></text>
        <g id="icon-8" data-name="icon" transform="translate(1120 49) rotate(-180)">
          <rect id="area-11" data-name="area" width="40" height="40" fill="none"/>
          <path id="패스_250-6" data-name="패스 250" d="M0,6.5,6.5,0,13,6.5" transform="translate(13.5 16.75)" fill="none" stroke="#7f7f7f" stroke-width="2"/>
        </g>
      </g>
      <g id="list" transform="translate(0 -649)">
        <g id="bg-9" data-name="bg" transform="translate(0 -9)">
          <rect id="area-12" data-name="area" width="1130" height="81" transform="translate(530 1205)" fill="#fff"/>
          <rect id="line-3" data-name="line" width="1130" height="1" transform="translate(530 1286)" fill="#e9efef"/>
          <rect id="line-4" data-name="line" width="1130" height="1" transform="translate(530 1205)" fill="#dee3e3"/>
        </g>
        <text id="A" transform="translate(530 1227)" fill="#999" font-size="18" font-family="Roboto-Bold, Roboto" font-weight="700" opacity="0.99"><tspan x="-6.056" y="19">A</tspan></text>
        <text id="국민_모두에게_공개되어있는_장소이며_월_금_09:00_18:00_까지_방문_가능합니다." data-name="국민 모두에게 공개되어있는 장소이며, 월~금 09:00 ~ 18:00 까지 방문 가능합니다." transform="translate(620 1225)" fill="#575757" font-size="18" font-family="NotoSansCJKkr-Regular, Noto Sans CJK KR" letter-spacing="-0.05em" opacity="0.99"><tspan x="0" y="21">국민 모두에게 공개되어있는 장소이며, 월~금 09:00 ~ 18:00 까지 방문 가능합니다.</tspan></text>
      </g>
      <g id="head-3" data-name="head" transform="translate(530 487)">
        <g id="bg-10" data-name="bg" transform="translate(-530 -1136)">
          <rect id="bg-11" data-name="bg" width="1130" height="60" transform="translate(530 1136)" fill="none"/>
        </g>
        <text id="Q-3" data-name="Q" transform="translate(0 16)" fill="#188fef" font-size="18" font-family="NotoSansCJKkr-Bold, Noto Sans CJK KR" font-weight="700" letter-spacing="-0.05em"><tspan x="-6.93" y="21">Q</tspan></text>
        <text id="전시실은_공개되어있는_장소인가요_" data-name="전시실은 공개되어있는 장소인가요?" transform="translate(90 16)" fill="#188fef" font-size="18" font-family="NotoSansCJKkr-Medium, Noto Sans CJK KR" font-weight="500" letter-spacing="-0.05em"><tspan x="0" y="21">전시실은 공개되어있는 장소인가요?</tspan></text>
        <g id="icon-9" data-name="icon" transform="translate(1080 9)">
          <rect id="area-13" data-name="area" width="40" height="40" fill="none"/>
          <path id="패스_250-7" data-name="패스 250" d="M0,6.5,6.5,0,13,6.5" transform="translate(13.5 16.75)" fill="none" stroke="#188fef" stroke-width="2"/>
        </g>
      </g>
      <g id="head-4" data-name="head" transform="translate(530 629)">
        <g id="bg-12" data-name="bg" transform="translate(-530 -1136)">
          <rect id="bg-13" data-name="bg" width="1130" height="60" transform="translate(530 1136)" fill="none"/>
          <rect id="line-5" data-name="line" width="1130" height="1" transform="translate(530 1195)" fill="#dee3e3"/>
        </g>
        <text id="Q-4" data-name="Q" transform="translate(0 16)" font-size="18" font-family="NotoSansCJKkr-Bold, Noto Sans CJK KR" font-weight="700" letter-spacing="-0.05em"><tspan x="-6.93" y="21">Q</tspan></text>
        <text id="이북5도위원회는_어디에_있나요_2" data-name="이북5도위원회는 어디에 있나요? " transform="translate(90 16)" font-size="18" font-family="NotoSansCJKkr-Regular, Noto Sans CJK KR" letter-spacing="-0.05em"><tspan x="0" y="21">이북5도위원회는 어디에 있나요? </tspan></text>
        <g id="icon-10" data-name="icon" transform="translate(1120 49) rotate(-180)">
          <rect id="area-14" data-name="area" width="40" height="40" fill="none"/>
          <path id="패스_250-8" data-name="패스 250" d="M0,6.5,6.5,0,13,6.5" transform="translate(13.5 16.75)" fill="none" stroke="#7f7f7f" stroke-width="2"/>
        </g>
      </g>
      <g id="head-5" data-name="head" transform="translate(530 689)">
        <g id="bg-14" data-name="bg" transform="translate(-530 -1136)">
          <rect id="bg-15" data-name="bg" width="1130" height="60" transform="translate(530 1136)" fill="none"/>
          <rect id="line-6" data-name="line" width="1130" height="1" transform="translate(530 1195)" fill="#dee3e3"/>
        </g>
        <text id="Q-5" data-name="Q" transform="translate(0 16)" font-size="18" font-family="NotoSansCJKkr-Bold, Noto Sans CJK KR" font-weight="700" letter-spacing="-0.05em"><tspan x="-6.93" y="21">Q</tspan></text>
        <text id="이북5도위원회는_어디에_있나요_3" data-name="이북5도위원회는 어디에 있나요? " transform="translate(90 16)" font-size="18" font-family="NotoSansCJKkr-Regular, Noto Sans CJK KR" letter-spacing="-0.05em"><tspan x="0" y="21">이북5도위원회는 어디에 있나요? </tspan></text>
        <g id="icon-11" data-name="icon" transform="translate(1120 49) rotate(-180)">
          <rect id="area-15" data-name="area" width="40" height="40" fill="none"/>
          <path id="패스_250-9" data-name="패스 250" d="M0,6.5,6.5,0,13,6.5" transform="translate(13.5 16.75)" fill="none" stroke="#7f7f7f" stroke-width="2"/>
        </g>
      </g>
      <g id="head-6" data-name="head" transform="translate(530 749)">
        <g id="bg-16" data-name="bg" transform="translate(-530 -1136)">
          <rect id="bg-17" data-name="bg" width="1130" height="60" transform="translate(530 1136)" fill="none"/>
          <rect id="line-7" data-name="line" width="1130" height="1" transform="translate(530 1195)" fill="#dee3e3"/>
        </g>
        <text id="Q-6" data-name="Q" transform="translate(0 16)" font-size="18" font-family="NotoSansCJKkr-Bold, Noto Sans CJK KR" font-weight="700" letter-spacing="-0.05em"><tspan x="-6.93" y="21">Q</tspan></text>
        <text id="이북5도위원회는_어디에_있나요_4" data-name="이북5도위원회는 어디에 있나요? " transform="translate(90 16)" font-size="18" font-family="NotoSansCJKkr-Regular, Noto Sans CJK KR" letter-spacing="-0.05em"><tspan x="0" y="21">이북5도위원회는 어디에 있나요? </tspan></text>
        <g id="icon-12" data-name="icon" transform="translate(1120 49) rotate(-180)">
          <rect id="area-16" data-name="area" width="40" height="40" fill="none"/>
          <path id="패스_250-10" data-name="패스 250" d="M0,6.5,6.5,0,13,6.5" transform="translate(13.5 16.75)" fill="none" stroke="#7f7f7f" stroke-width="2"/>
        </g>
      </g>
      <g id="head-7" data-name="head" transform="translate(530 809)">
        <g id="bg-18" data-name="bg" transform="translate(-530 -1136)">
          <rect id="bg-19" data-name="bg" width="1130" height="60" transform="translate(530 1136)" fill="none"/>
          <rect id="line-8" data-name="line" width="1130" height="1" transform="translate(530 1195)" fill="#dee3e3"/>
        </g>
        <text id="Q-7" data-name="Q" transform="translate(0 16)" font-size="18" font-family="NotoSansCJKkr-Bold, Noto Sans CJK KR" font-weight="700" letter-spacing="-0.05em"><tspan x="-6.93" y="21">Q</tspan></text>
        <text id="이북5도위원회는_어디에_있나요_5" data-name="이북5도위원회는 어디에 있나요? " transform="translate(90 16)" font-size="18" font-family="NotoSansCJKkr-Regular, Noto Sans CJK KR" letter-spacing="-0.05em"><tspan x="0" y="21">이북5도위원회는 어디에 있나요? </tspan></text>
        <g id="icon-13" data-name="icon" transform="translate(1120 49) rotate(-180)">
          <rect id="area-17" data-name="area" width="40" height="40" fill="none"/>
          <path id="패스_250-11" data-name="패스 250" d="M0,6.5,6.5,0,13,6.5" transform="translate(13.5 16.75)" fill="none" stroke="#7f7f7f" stroke-width="2"/>
        </g>
      </g>
      <g id="head-8" data-name="head" transform="translate(530 869)">
        <g id="bg-20" data-name="bg" transform="translate(-530 -1136)">
          <rect id="bg-21" data-name="bg" width="1130" height="60" transform="translate(530 1136)" fill="none"/>
          <rect id="line-9" data-name="line" width="1130" height="1" transform="translate(530 1195)" fill="#dee3e3"/>
        </g>
        <text id="Q-8" data-name="Q" transform="translate(0 16)" font-size="18" font-family="NotoSansCJKkr-Bold, Noto Sans CJK KR" font-weight="700" letter-spacing="-0.05em"><tspan x="-6.93" y="21">Q</tspan></text>
        <text id="이북5도위원회는_어디에_있나요_6" data-name="이북5도위원회는 어디에 있나요? " transform="translate(90 16)" font-size="18" font-family="NotoSansCJKkr-Regular, Noto Sans CJK KR" letter-spacing="-0.05em"><tspan x="0" y="21">이북5도위원회는 어디에 있나요? </tspan></text>
        <g id="icon-14" data-name="icon" transform="translate(1120 49) rotate(-180)">
          <rect id="area-18" data-name="area" width="40" height="40" fill="none"/>
          <path id="패스_250-12" data-name="패스 250" d="M0,6.5,6.5,0,13,6.5" transform="translate(13.5 16.75)" fill="none" stroke="#7f7f7f" stroke-width="2"/>
        </g>
      </g>
      <g id="head-9" data-name="head" transform="translate(530 929)">
        <g id="bg-22" data-name="bg" transform="translate(-530 -1136)">
          <rect id="bg-23" data-name="bg" width="1130" height="60" transform="translate(530 1136)" fill="none"/>
          <rect id="line-10" data-name="line" width="1130" height="1" transform="translate(530 1195)" fill="#dee3e3"/>
        </g>
        <text id="Q-9" data-name="Q" transform="translate(0 16)" font-size="18" font-family="NotoSansCJKkr-Bold, Noto Sans CJK KR" font-weight="700" letter-spacing="-0.05em"><tspan x="-6.93" y="21">Q</tspan></text>
        <text id="이북5도위원회는_어디에_있나요_7" data-name="이북5도위원회는 어디에 있나요? " transform="translate(90 16)" font-size="18" font-family="NotoSansCJKkr-Regular, Noto Sans CJK KR" letter-spacing="-0.05em"><tspan x="0" y="21">이북5도위원회는 어디에 있나요? </tspan></text>
        <g id="icon-15" data-name="icon" transform="translate(1120 49) rotate(-180)">
          <rect id="area-19" data-name="area" width="40" height="40" fill="none"/>
          <path id="패스_250-13" data-name="패스 250" d="M0,6.5,6.5,0,13,6.5" transform="translate(13.5 16.75)" fill="none" stroke="#7f7f7f" stroke-width="2"/>
        </g>
      </g>
      <g id="head-10" data-name="head" transform="translate(530 989)">
        <g id="bg-24" data-name="bg" transform="translate(-530 -1136)">
          <rect id="bg-25" data-name="bg" width="1130" height="60" transform="translate(530 1136)" fill="none"/>
          <rect id="line-11" data-name="line" width="1130" height="1" transform="translate(530 1195)" fill="#dee3e3"/>
        </g>
        <text id="Q-10" data-name="Q" transform="translate(0 16)" font-size="18" font-family="NotoSansCJKkr-Bold, Noto Sans CJK KR" font-weight="700" letter-spacing="-0.05em"><tspan x="-6.93" y="21">Q</tspan></text>
        <text id="이북5도위원회는_어디에_있나요_8" data-name="이북5도위원회는 어디에 있나요? " transform="translate(90 16)" font-size="18" font-family="NotoSansCJKkr-Regular, Noto Sans CJK KR" letter-spacing="-0.05em"><tspan x="0" y="21">이북5도위원회는 어디에 있나요? </tspan></text>
        <g id="icon-16" data-name="icon" transform="translate(1120 49) rotate(-180)">
          <rect id="area-20" data-name="area" width="40" height="40" fill="none"/>
          <path id="패스_250-14" data-name="패스 250" d="M0,6.5,6.5,0,13,6.5" transform="translate(13.5 16.75)" fill="none" stroke="#7f7f7f" stroke-width="2"/>
        </g>
      </g>
      <rect id="line-12" data-name="line" width="1130" height="2" transform="translate(530 365)" fill="#575757"/>
      <g id="search">
        <rect id="bg-26" data-name="bg" width="1130" height="68" transform="translate(530 297)" fill="#fff"/>
        <g id="search-2" data-name="search" transform="translate(54 -1786)">
          <g id="btn" transform="translate(1546 2097)">
            <rect id="bg-27" data-name="bg" width="40" height="40" fill="#003764"/>
            <g id="icon-17" data-name="icon">
              <rect id="area-21" data-name="area" width="40" height="40" fill="none"/>
              <path id="icon-18" data-name="icon" d="M283.054,282.012l-3.855-3.855a8.849,8.849,0,1,0-1.128,1.128l3.855,3.855Zm-15.78-4.393a7.254,7.254,0,1,1,5.129,2.125A7.207,7.207,0,0,1,267.274,277.619Z" transform="translate(-253.304 -253.39)" fill="#fff"/>
            </g>
          </g>
          <g id="input" transform="translate(1286 2097)" fill="#fff" stroke="#d0d5d5" stroke-width="1">
            <rect width="260" height="40" stroke="none"/>
            <rect x="0.5" y="0.5" width="259" height="39" fill="none"/>
          </g>
          <g id="select" transform="translate(1156 2097)">
            <g id="bg-28" data-name="bg" fill="#fff" stroke="#d0d5d5" stroke-width="1">
              <rect width="120" height="40" stroke="none"/>
              <rect x="0.5" y="0.5" width="119" height="39" fill="none"/>
            </g>
            <g id="icon-19" data-name="icon" transform="translate(80)">
              <rect id="area-22" data-name="area" width="40" height="40" fill="none"/>
              <path id="패스_250-15" data-name="패스 250" d="M-1445.5,1867.5l5.2,5.2,5.2-5.2" transform="translate(1460.3 -1850.1)" fill="none" stroke="#7f7f7f" stroke-width="2"/>
            </g>
            <text id="질문" transform="translate(15 27)" fill="#999" font-size="16" font-family="NotoSansCJKkr-Regular, Noto Sans CJK KR" letter-spacing="-0.05em" opacity="0.99"><tspan x="0" y="0">질문</tspan></text>
          </g>
        </g>
        <g id="total" transform="translate(-100 -1736)">
          <text id="전체" transform="translate(650 2076)" fill="#575757" font-size="16" font-family="NotoSansCJKkr-Regular, Noto Sans CJK KR" letter-spacing="-0.05em" opacity="0.99"><tspan x="0" y="0">전체</tspan></text>
          <text id="건" transform="translate(723 2076)" fill="#575757" font-size="16" font-family="NotoSansCJKkr-Regular, Noto Sans CJK KR" letter-spacing="-0.05em" opacity="0.99"><tspan x="0" y="0">건</tspan></text>
          <text id="_150" data-name="150" transform="translate(689 2076)" font-size="20" font-family="Roboto-Medium, Roboto" font-weight="500" opacity="0.99"><tspan x="0" y="0">150</tspan></text>
        </g>
      </g>
    </g>
  </g>
</svg>
