<svg id="MI" xmlns="http://www.w3.org/2000/svg" width="146.05" height="155.074" viewBox="0 0 146.05 155.074">
  <g id="그룹_101" data-name="그룹 101" transform="translate(28.195)">
    <path id="패스_126" data-name="패스 126" d="M150.926,57.848c-7.563-5.137-17.241-3.044-22.332,4.681a15.684,15.684,0,0,1-28.368-4.312h-.006c-.02-.066-.031-.117-.047-.168-.016-.068-.029-.131-.049-.2a20.107,20.107,0,0,1-.809-6.235c0-14.068,14.443-29.735,35.228-29.735,21.293,0,33.477,16.209,36.625,25.218-.061-.168-.113-.32-.164-.477A44.84,44.84,0,0,0,83.751,61.162c0,22.133,15.963,41.072,38.112,41.072,17.655,0,29.528-9.894,34.964-23.544,2.987-7.468.877-16.236-5.9-20.842" transform="translate(-83.751 -16.331)" fill="#fff"/>
    <path id="패스_127" data-name="패스 127" d="M163.479,45.129c-2.628-8.79-14.892-26.09-36.9-26.09-20.785,0-35.228,15.668-35.228,29.735a20.107,20.107,0,0,0,.809,6.235,13.114,13.114,0,0,1-.41-3.2c0-14.652,14.669-24.8,29.749-24.8a36.964,36.964,0,0,1,36.969,36.959,40.758,40.758,0,0,1-22.584,36.511v.012a44.924,44.924,0,0,0,27.6-55.362" transform="translate(-75.785 -13.492)" fill="#fff"/>
  </g>
  <g id="그룹_102" data-name="그룹 102" transform="translate(27.213 110.581)">
    <path id="패스_128" data-name="패스 128" d="M142.7,20.387V18.923h2.309v1.464h3.214v1.807h-9.1V20.387Zm5.141,5.924a3.239,3.239,0,0,1-.32,1.426,3.91,3.91,0,0,1-.865,1.165,4.1,4.1,0,0,1-1.255.794,4.187,4.187,0,0,1-3.072,0,4.1,4.1,0,0,1-1.255-.794,3.882,3.882,0,0,1-.863-1.165,3.221,3.221,0,0,1-.321-1.426,3.287,3.287,0,0,1,.321-1.435,3.855,3.855,0,0,1,.863-1.175,4.127,4.127,0,0,1,1.255-.794,4.206,4.206,0,0,1,3.072,0,4.128,4.128,0,0,1,1.255.794,3.883,3.883,0,0,1,.865,1.175A3.306,3.306,0,0,1,147.845,26.31Zm-2.028-.019a1.854,1.854,0,0,0-.571-1.355,1.88,1.88,0,0,0-1.376-.571,1.843,1.843,0,0,0-1.365.571,1.868,1.868,0,0,0-.563,1.355,1.835,1.835,0,0,0,.563,1.346,1.855,1.855,0,0,0,1.365.562,1.893,1.893,0,0,0,1.376-.562A1.822,1.822,0,0,0,145.817,26.291Zm7.671,7.09a3.443,3.443,0,0,1-.341,1.514,4.325,4.325,0,0,1-.9,1.255,4.589,4.589,0,0,1-1.346.866,4.175,4.175,0,0,1-1.627.32,4.243,4.243,0,0,1-1.636-.32,4.531,4.531,0,0,1-1.355-.866,4.275,4.275,0,0,1-.9-1.255,3.444,3.444,0,0,1-.342-1.514,3.529,3.529,0,0,1,.342-1.526,4.247,4.247,0,0,1,.9-1.265,4.47,4.47,0,0,1,1.355-.863,4.219,4.219,0,0,1,1.636-.321,4.151,4.151,0,0,1,1.627.321,4.525,4.525,0,0,1,1.346.863,4.3,4.3,0,0,1,.9,1.265A3.528,3.528,0,0,1,153.488,33.381Zm-2.128-.021a2,2,0,0,0-.623-1.465,2.031,2.031,0,0,0-1.485-.624,2,2,0,0,0-1.478.624,2.025,2.025,0,0,0-.612,1.465,1.99,1.99,0,0,0,.612,1.456,2.013,2.013,0,0,0,1.478.613,2.042,2.042,0,0,0,1.485-.613A1.969,1.969,0,0,0,151.359,33.36Zm-.04-4.5H149.31V19.3h2.009V23.1h1.788V19.284h2.088V29.1h-2.088V25.066h-1.788Z" transform="translate(-139.13 -18.923)" fill="#fff"/>
    <path id="패스_129" data-name="패스 129" d="M152.512,21.55V19.683h10.04V21.55h-4.276l4.458,5.444-1.526,1.244-3.574-4.458-3.555,4.76-1.588-1.286,4.439-5.7Zm13.9,11.408a3.841,3.841,0,0,1-.361,1.656,4.548,4.548,0,0,1-.963,1.355,4.73,4.73,0,0,1-1.457.923,4.579,4.579,0,0,1-1.756.342,4.655,4.655,0,0,1-1.767-.342,4.7,4.7,0,0,1-1.468-.923,4.573,4.573,0,0,1-.963-1.355,3.861,3.861,0,0,1-.361-1.656,3.938,3.938,0,0,1,.361-1.667,4.535,4.535,0,0,1,.963-1.367A4.7,4.7,0,0,1,160.1,29a4.655,4.655,0,0,1,1.767-.342,4.579,4.579,0,0,1,1.756.342,4.73,4.73,0,0,1,1.457.923,4.511,4.511,0,0,1,.963,1.367A3.917,3.917,0,0,1,166.408,32.958Zm-2.128-.021a2.3,2.3,0,0,0-.723-1.7,2.351,2.351,0,0,0-1.707-.713,2.433,2.433,0,0,0-2.409,2.409,2.284,2.284,0,0,0,.712,1.688,2.34,2.34,0,0,0,1.7.7,2.373,2.373,0,0,0,1.707-.7A2.274,2.274,0,0,0,164.28,32.937Zm1.446-4.479v-3.8h-3.253V22.8h3.253V19.183h2.169v9.275Z" transform="translate(-133.917 -18.822)" fill="#fff"/>
    <path id="패스_130" data-name="패스 130" d="M175.34,24.081a4.418,4.418,0,0,1-.392,1.849,4.945,4.945,0,0,1-1.075,1.525,5.326,5.326,0,0,1-1.576,1.025,5.018,5.018,0,0,1-3.836,0,5.344,5.344,0,0,1-1.576-1.025,4.968,4.968,0,0,1-1.075-1.525,4.564,4.564,0,0,1,0-3.7,4.99,4.99,0,0,1,1.075-1.526,5.344,5.344,0,0,1,1.576-1.025,5.018,5.018,0,0,1,3.836,0,5.327,5.327,0,0,1,1.576,1.025,4.968,4.968,0,0,1,1.075,1.526A4.414,4.414,0,0,1,175.34,24.081Zm-6.646,6.407V34.4H180.46v1.928H166.525V30.488Zm4.558-6.387A2.694,2.694,0,0,0,173.02,23a2.816,2.816,0,0,0-1.526-1.535,2.622,2.622,0,0,0-1.094-.231,2.691,2.691,0,0,0-1.1.231,3.224,3.224,0,0,0-.924.612,3.19,3.19,0,0,0-.612.923,2.693,2.693,0,0,0-.231,1.105,2.627,2.627,0,0,0,.231,1.094,2.8,2.8,0,0,0,1.536,1.526,2.691,2.691,0,0,0,1.1.231,2.622,2.622,0,0,0,1.094-.231A2.837,2.837,0,0,0,173.02,25.2,2.628,2.628,0,0,0,173.252,24.1Zm6.766,6.286H177.85v-11.2h2.169V23h2.511v2.149h-2.511Z" transform="translate(-128.872 -18.822)" fill="#fff"/>
    <path id="패스_131" data-name="패스 131" d="M178.858,21.55V19.683H188.9V21.55h-4.257l4.437,6.546L187.435,29.2l-3.455-5.26-3.453,5.4-1.688-1.125,4.418-6.667Zm1.205,14.78V30.488h2.169V34.4H194.4v1.928Zm12.008-5.943V25.225h-3.253V23.3h3.253V19.183h2.17v11.2Z" transform="translate(-123.636 -18.822)" fill="#fff"/>
    <path id="패스_132" data-name="패스 132" d="M192.071,30.163h16.064V32.09h-6.947v4.5H199v-4.5h-6.929Zm3.434-8.555h9.2V19.4h2.148v8.413H193.356V19.4H195.5Zm9.2,1.886h-9.2v2.411h9.2Z" transform="translate(-118.473 -18.737)" fill="#fff"/>
  </g>
  <g id="그룹_103" data-name="그룹 103" transform="translate(0 133.312)">
    <path id="패스_133" data-name="패스 133" d="M153.688,44.454a5.845,5.845,0,0,1-.53,2.462,6.592,6.592,0,0,1-3.495,3.385,6.686,6.686,0,0,1-5.1,0,6.7,6.7,0,0,1-2.08-1.367,6.611,6.611,0,0,1-1.415-2.019,5.987,5.987,0,0,1,0-4.924,6.605,6.605,0,0,1,1.415-2.017,6.7,6.7,0,0,1,2.08-1.367,6.686,6.686,0,0,1,5.1,0,6.7,6.7,0,0,1,2.08,1.367,6.629,6.629,0,0,1,1.415,2.017A5.845,5.845,0,0,1,153.688,44.454Zm-2.634,0a3.981,3.981,0,0,0-.307-1.551,4.131,4.131,0,0,0-.824-1.279,3.968,3.968,0,0,0-1.268-.849,4.008,4.008,0,0,0-3.078,0,3.968,3.968,0,0,0-1.268.849,4.13,4.13,0,0,0-.824,1.279,4.067,4.067,0,0,0,0,3.1,4.121,4.121,0,0,0,.824,1.28,3.972,3.972,0,0,0,1.268.851,4.008,4.008,0,0,0,3.078,0,3.972,3.972,0,0,0,1.268-.851,4.121,4.121,0,0,0,.824-1.28A3.979,3.979,0,0,0,151.053,44.454Zm6.081-8.985h2.659V56.91h-2.659Z" transform="translate(-140.542 -35.198)" fill="#fff"/>
    <path id="패스_134" data-name="패스 134" d="M165.521,50.112v-1.87h-8.493V45.9h19.693v2.34H168.2v1.87h6.941v6.82h-2.658V52.427h-14.13V50.112Zm6.991-12.553V35.54h2.633V44.2H158.6V35.54h2.634v2.019Zm0,4.332V39.848H161.237V41.89Z" transform="translate(-134.109 -35.17)" fill="#fff"/>
    <path id="패스_135" data-name="패스 135" d="M175.876,46.37l-2.215-1.009,1.871-8.493h8.886v2.338h-6.7l-.838,3.938a4.7,4.7,0,0,1,2.708-.788,5.7,5.7,0,0,1,4.062,9.848,6.9,6.9,0,0,1-6.893,1.316,6.779,6.779,0,0,1-1.871-1.07,6.322,6.322,0,0,1-1.821-2.487l2.462-1.255a5.006,5.006,0,0,0,1.157,1.9,3.3,3.3,0,0,0,2.387.984,3.461,3.461,0,0,0,2.487-1.009,3.591,3.591,0,0,0,1.033-2.561,3.405,3.405,0,0,0-1.009-2.462,3.344,3.344,0,0,0-2.511-.959A4.574,4.574,0,0,0,175.876,46.37Z" transform="translate(-127.85 -34.652)" fill="#fff"/>
    <path id="패스_136" data-name="패스 136" d="M185.413,47.343V36.266h16.542V38.6H188.07V45H202v2.338h-6.991V52.66h8.516v2.363H183.836V52.66h8.493V47.343Z" transform="translate(-123.649 -34.887)" fill="#fff"/>
    <path id="패스_137" data-name="패스 137" d="M214.167,50.411H208.26v5.81H205.6v-5.81h-5.686V48.047h14.252Zm-1.476-9.132a4.933,4.933,0,0,1-.456,2.092,5.493,5.493,0,0,1-1.243,1.722,5.962,5.962,0,0,1-1.846,1.171,6.057,6.057,0,0,1-4.481,0,5.979,5.979,0,0,1-1.846-1.171,5.493,5.493,0,0,1-1.243-1.722,5.028,5.028,0,0,1,0-4.184,5.494,5.494,0,0,1,1.243-1.722,6.008,6.008,0,0,1,8.173,0,5.493,5.493,0,0,1,1.243,1.722A4.933,4.933,0,0,1,212.691,41.279Zm-2.609,0a2.987,2.987,0,0,0-.936-2.2,3.076,3.076,0,0,0-2.24-.923,3.126,3.126,0,1,0,0,6.252,3.075,3.075,0,0,0,2.24-.922A2.989,2.989,0,0,0,210.081,41.279Zm5.785-5.81h2.659V56.91h-2.659Z" transform="translate(-117.376 -35.198)" fill="#fff"/>
    <path id="패스_138" data-name="패스 138" d="M230.318,48.42H224.63v3.249h-2.658V48.42h-5.908V46.08h14.254Zm-12.8,8.2V50.487h2.658V54.3H234.92v2.315Zm10.9-16.371a4.4,4.4,0,0,1-.431,1.932,5.483,5.483,0,0,1-1.144,1.588,5.742,5.742,0,0,1-1.711,1.058,5.679,5.679,0,0,1-4.161,0,5.735,5.735,0,0,1-1.71-1.058,5.488,5.488,0,0,1-1.146-1.588,4.561,4.561,0,0,1,0-3.865,5.488,5.488,0,0,1,1.146-1.588,5.764,5.764,0,0,1,1.71-1.058,5.679,5.679,0,0,1,4.161,0,5.77,5.77,0,0,1,1.711,1.058,5.483,5.483,0,0,1,1.144,1.588A4.408,4.408,0,0,1,228.421,40.247Zm-2.584,0a2.557,2.557,0,0,0-.824-1.92,2.828,2.828,0,0,0-3.915,0,2.648,2.648,0,0,0,0,3.84,2.828,2.828,0,0,0,3.915,0A2.557,2.557,0,0,0,225.837,40.247Zm6.178-4.7h2.659V51.915h-2.659v-7.9h-2.978V41.7h2.978Z" transform="translate(-111.074 -35.274)" fill="#fff"/>
    <path id="패스_139" data-name="패스 139" d="M244.472,45.135a4.431,4.431,0,0,1-.406,1.871,4.894,4.894,0,0,1-1.12,1.551,5.159,5.159,0,0,1-1.674,1.033,5.821,5.821,0,0,1-.715.222v2.708h5.908v2.338H232.213V52.521H237.9V49.813a5.8,5.8,0,0,1-.713-.222,5.129,5.129,0,0,1-1.674-1.033,4.872,4.872,0,0,1-1.12-1.551,4.516,4.516,0,0,1,0-3.742,4.867,4.867,0,0,1,1.12-1.55,5.106,5.106,0,0,1,1.674-1.033,5.828,5.828,0,0,1,4.086,0,5.135,5.135,0,0,1,1.674,1.033,4.888,4.888,0,0,1,1.12,1.55A4.436,4.436,0,0,1,244.472,45.135Zm-6.7-7.482v-2.29h2.879v2.29h5.1v2.288h-13.1V37.653Zm4.111,7.482a2.467,2.467,0,0,0-.776-1.821,2.585,2.585,0,0,0-1.884-.763,2.54,2.54,0,0,0-1.87.763,2.556,2.556,0,0,0,0,3.644,2.54,2.54,0,0,0,1.87.763,2.585,2.585,0,0,0,1.884-.763A2.468,2.468,0,0,0,241.887,45.135Zm6.277-9.624h2.659V56.951h-2.659Z" transform="translate(-104.773 -35.239)" fill="#fff"/>
  </g>
</svg>
