<svg xmlns="http://www.w3.org/2000/svg" width="60" height="60" viewBox="0 0 60 60">
    <defs>
        <clipPath id="clip-path">
            <path id="사각형_24131" data-name="사각형 24131" class="cls-1" d="M0 0h46v46.002H0z"/>
        </clipPath>
        <style>
            .cls-1{fill:#fff;stroke:#fff}
        </style>
    </defs>
    <g id="icon" transform="translate(-538 -1341)">
        <path id="area" transform="translate(538 1341)" style="fill:none" d="M0 0h60v60H0z"/>
        <g id="icon-2" data-name="icon" transform="translate(545 1347.999)">
            <g id="그룹_18646" data-name="그룹 18646" style="clip-path:url(#clip-path)">
                <path id="패스_8574" data-name="패스 8574" class="cls-1" d="M13.086 43.622H3.3a.919.919 0 0 1-.918-.917V3.3a.919.919 0 0 1 .918-.92h31.473a.919.919 0 0 1 .918.917v5.824a1.189 1.189 0 1 0 2.378 0V3.3a3.3 3.3 0 0 0-3.3-3.3H3.3A3.3 3.3 0 0 0 0 3.3v39.405A3.3 3.3 0 0 0 3.3 46h9.79a1.19 1.19 0 0 0 0-2.38"/>
                <path id="패스_8575" data-name="패스 8575" class="cls-1" d="M289.12 360a1.189 1.189 0 0 0-1.189 1.19v5.825a.919.919 0 0 1-.918.917h-5.825a1.19 1.19 0 0 0 0 2.38h5.825a3.3 3.3 0 0 0 3.3-3.3v-5.822a1.189 1.189 0 0 0-1.193-1.19" transform="translate(-252.24 -324.309)"/>
                <path id="패스_8576" data-name="패스 8576" class="cls-1" d="M81.189 180a1.19 1.19 0 0 0 0 2.38h3.966a1.19 1.19 0 0 0 0-2.38z" transform="translate(-72.069 -162.155)"/>
                <path id="패스_8577" data-name="패스 8577" class="cls-1" d="M190.309 181.19a1.189 1.189 0 0 0-1.189-1.19h-7.931a1.19 1.19 0 0 0 0 2.38h7.931a1.189 1.189 0 0 0 1.189-1.19" transform="translate(-162.155 -162.155)"/>
                <path id="패스_8578" data-name="패스 8578" class="cls-1" d="M141.189 102.38h7.931a1.19 1.19 0 0 0 0-2.38h-7.931a1.19 1.19 0 0 0 0 2.38" transform="translate(-126.12 -90.086)"/>
                <path id="패스_8579" data-name="패스 8579" class="cls-1" d="M81.189 262.38H91.1a1.19 1.19 0 0 0 0-2.38h-9.911a1.19 1.19 0 0 0 0 2.38" transform="translate(-72.069 -234.223)"/>
                <path id="패스_8580" data-name="패스 8580" class="cls-1" d="M85.155 340h-3.966a1.19 1.19 0 0 0 0 2.38h3.966a1.19 1.19 0 0 0 0-2.38" transform="translate(-72.069 -306.292)"/>
                <path id="패스_8581" data-name="패스 8581" class="cls-1" d="m207.8 146.3-5.948-5.948a1.187 1.187 0 0 0-1.681 0l-17.845 17.845a1.19 1.19 0 0 0-.314.553l-1.983 7.931a1.191 1.191 0 0 0 1.154 1.478 1.168 1.168 0 0 0 .289-.036l7.931-1.983a1.185 1.185 0 0 0 .552-.313L207.8 147.98a1.19 1.19 0 0 0 0-1.683m-19.294 17.612-5.689 1.422 1.423-5.688 2.381-2.381 4.267 4.265zm4.063-4.063-4.267-4.265 12.708-12.708 4.266 4.266z" transform="translate(-162.151 -126.12)"/>
            </g>
        </g>
    </g>
</svg>
