<svg id="icon" xmlns="http://www.w3.org/2000/svg" width="60" height="60" viewBox="0 0 60 60">
  <rect id="area" width="60" height="60" fill="none"/>
  <g id="icon-2" data-name="icon" transform="translate(7 8)">
    <path id="패스_8594" data-name="패스 8594" d="M46,18.045a6.143,6.143,0,0,0-5.948-6.126V1.191a1.19,1.19,0,0,0-1.88-.968c-.136.1-13.688,9.693-23.1,9.693H8.129a8.12,8.12,0,0,0-.2,16.238V38.864a5.155,5.155,0,0,0,10.309,0V30.933a1.189,1.189,0,1,0-2.378,0v7.931a2.777,2.777,0,0,1-5.554,0V26.174h4.76c9.415,0,22.967,9.6,23.1,9.693a1.189,1.189,0,0,0,1.88-.968V24.171A6.143,6.143,0,0,0,46,18.045m-43.622,0a5.759,5.759,0,0,1,5.751-5.751H13.88V23.8H8.129a5.759,5.759,0,0,1-5.751-5.751m35.3,14.616c-3.993-2.6-13.535-8.28-21.416-8.824V12.253c4.4-.3,9.307-2.206,13.485-4.279V23a1.189,1.189,0,0,0,2.378,0V6.736c2.284-1.241,4.228-2.444,5.554-3.306V32.66Zm2.378-10.853V14.282a3.768,3.768,0,0,1,0,7.525" transform="translate(0 0)" fill="#fff" stroke="#fff" stroke-width="1"/>
  </g>
</svg>
