<svg id="icon" xmlns="http://www.w3.org/2000/svg" width="60" height="60" viewBox="0 0 60 60">
  <rect id="area" width="60" height="60" fill="none"/>
  <g id="icon-2" data-name="icon" transform="translate(7 7)">
    <path id="패스_8592" data-name="패스 8592" d="M24.081,26.1a1.187,1.187,0,0,0-1.681,0L11.224,37.272,8.7,34.748,23.007,20.442l5.628,5.628,3.214,3.215a2.818,2.818,0,0,0,3.985,0l9.343-9.34a2.825,2.825,0,0,0,0-3.986l-3.214-3.214L33.228,4.012,30.014.8a2.888,2.888,0,0,0-3.985,0l-9.343,9.34a2.825,2.825,0,0,0,0,3.986L19.9,17.338l1.423,1.423L1.216,38.867a4.161,4.161,0,0,0,2.945,7.105A4.127,4.127,0,0,0,7.1,44.757L24.081,27.779a1.19,1.19,0,0,0,0-1.683m19.413-7.833L34.152,27.6a.372.372,0,0,1-.622,0l-2.373-2.373,9.963-9.961,2.372,2.373a.441.441,0,0,1,0,.622M29.476,23.547l-7.05-7.05,9.962-9.96,7.05,7.05ZM18.369,11.819l9.343-9.34a.372.372,0,0,1,.622,0l2.373,2.373-9.963,9.961-2.372-2.373a.441.441,0,0,1,0-.622M5.421,43.074a1.833,1.833,0,0,1-2.521,0,1.786,1.786,0,0,1,0-2.524l4.12-4.12,2.524,2.523Z" transform="translate(0 0)" fill="#fff" stroke="#fff" stroke-width="1"/>
    <path id="패스_8593" data-name="패스 8593" d="M259.389,379.717H242.846a2.835,2.835,0,0,0-2.831,2.832v4.306a1.189,1.189,0,0,0,1.189,1.19h3.966a1.19,1.19,0,0,0,0-2.38h-2.777v-3.116a.453.453,0,0,1,.453-.452h16.544a.453.453,0,0,1,.453.452v3.116h-8.725a1.19,1.19,0,0,0,0,2.38h9.914a1.189,1.189,0,0,0,1.189-1.19v-4.306a2.835,2.835,0,0,0-2.831-2.832" transform="translate(-216.221 -342.073)" fill="#fff" stroke="#fff" stroke-width="1"/>
  </g>
</svg>
