<svg id="icon" xmlns="http://www.w3.org/2000/svg" width="60" height="60" viewBox="0 0 60 60">
  <rect id="area" width="60" height="60" fill="none"/>
  <g id="그룹_18654" data-name="그룹 18654" transform="translate(7 7)">
    <path id="패스_8595" data-name="패스 8595" d="M54.523,197.676c3.021,0,5.389-3.748,5.389-8.533,0-6-3.768-6.647-5.389-6.647s-5.389.648-5.389,6.647c0,4.785,2.367,8.533,5.389,8.533m0-13.209c.845,0,3.417,0,3.417,4.675,0,3.5-1.6,6.561-3.417,6.561s-3.417-3.066-3.417-6.561c0-4.675,2.572-4.675,3.417-4.675" transform="translate(-43.998 -163.417)" fill="#fff" stroke="#fff" stroke-width="1"/>
    <path id="패스_8596" data-name="패스 8596" d="M14.735,336.89c-.09,0-.152,0-.195.008a.973.973,0,0,0-.9,1.037,1,1,0,0,0,1.042.929h.038a3.549,3.549,0,0,1,2.352,1.038c1.1,1.063,1.758,2.838,1.948,5.275a.482.482,0,0,1-.48.519H2.508a.482.482,0,0,1-.48-.519c.19-2.437.845-4.212,1.948-5.275a3.563,3.563,0,0,1,2.368-1.039l.1,0a.986.986,0,0,0,.063-1.969c-.027,0-.087-.005-.174-.005A5.426,5.426,0,0,0,2.691,338.4C.905,340.063,0,342.848,0,346.684a.987.987,0,0,0,.986.986H20.065a.987.987,0,0,0,.986-.986c0-3.836-.905-6.621-2.691-8.28a5.474,5.474,0,0,0-3.624-1.514" transform="translate(0 -301.67)" fill="#fff" stroke="#fff" stroke-width="1"/>
    <path id="패스_8597" data-name="패스 8597" d="M23,0A23.012,23.012,0,0,0,1.929,32.236a.986.986,0,1,0,1.806-.791A21.014,21.014,0,0,1,12.506,4.8a7.789,7.789,0,0,0,1.573,4.77c.649.854,2.992,2.9,4.939,2.9.044,0,.089,0,.144-.005a2.3,2.3,0,0,0,1.9-1.133,4.4,4.4,0,0,0,.477-1.313l.01-.04c.031-.131.063-.262.1-.39.293-.953,1.022-1.439,2.183-1.956a7.289,7.289,0,0,1,1.109-.354,7.114,7.114,0,0,0,1.884-.707,3.277,3.277,0,0,0,1.218-3.967A20.916,20.916,0,0,1,35.42,6.071a2.865,2.865,0,0,0-1.831,2.8,3.653,3.653,0,0,0,.352,1.153,2.971,2.971,0,0,1,.186.465.481.481,0,0,1,0,.231,1.115,1.115,0,0,1-.866.674,1.975,1.975,0,0,1-.325.026,3.669,3.669,0,0,1-1.767-.506l-.369-.232a3.844,3.844,0,0,0-2.177-.791,3.465,3.465,0,0,0-.377.021A3.535,3.535,0,0,0,25.406,11.8a4,4,0,0,0,.082,3.757,6.009,6.009,0,0,0,4.947,3.062,4.627,4.627,0,0,0,.475-.025c.185-.019.37-.047.555-.075.22-.033.445-.057.727-.077h.039a3.245,3.245,0,0,1,1.837.949A8.068,8.068,0,0,0,35.58,20.4c.371.177.8.35,1.259.536,1.336.54,3,1.212,3.435,2.3.225.562.4,1.131.562,1.682l.02.067a9.833,9.833,0,0,0,2.185,4.317,20.992,20.992,0,0,1-1.16,2.886,11.578,11.578,0,0,0-1.768-.62,5.76,5.76,0,0,1-1.832-.695.436.436,0,0,1-.051-.054c-.368-.45-.268-.942-.044-1.846a5.485,5.485,0,0,0,.221-2.2c-.409-2.536-2.8-3.39-4.921-4.145l-.041-.015c-.574-.2-1.167-.416-1.709-.665a13.9,13.9,0,0,0-5.087-1.393c-.122,0-.252-.008-.388-.008a3.88,3.88,0,0,0-2.488.719,2.5,2.5,0,0,0-.688.889l-.015.03a1.328,1.328,0,0,1-.117.2,2.234,2.234,0,0,1-.992.689l-.311.14a3.986,3.986,0,0,0-2.364,2.01c-.708,1.911.544,4.138,2.085,5.272a10.893,10.893,0,0,0,2.971,1.2c1.779.5,2.244.728,2.244,3.124a13.93,13.93,0,0,1-.112,1.448l-.012.11c-.223,2.033-.568,5.18,1.618,7.044a20.968,20.968,0,0,1-3.683.6A.986.986,0,0,0,24.466,46l.071,0A23.025,23.025,0,0,0,23,0m2.127,2.1a1.964,1.964,0,0,1,1.041,1.1,1.4,1.4,0,0,1-.358,1.686,5.425,5.425,0,0,1-1.375.492,9.018,9.018,0,0,0-1.405.459,5.266,5.266,0,0,0-3.264,3.176c-.055.177-.1.362-.145.552-.03.125-.079.328-.089.409a.481.481,0,0,1-.407.52.856.856,0,0,1-.134.01A6.434,6.434,0,0,1,15.648,8.38,5.259,5.259,0,0,1,14.7,3.687,20.9,20.9,0,0,1,23,1.972c.709,0,1.41.037,2.1.106.01,0,.016.014.026.018M42.744,24.419c-.179-.595-.382-1.268-.639-1.911-.747-1.868-2.84-2.715-4.527-3.4l-.061-.025c-.389-.157-.756-.306-1.09-.465a6.361,6.361,0,0,1-1.135-.781,4.9,4.9,0,0,0-3.023-1.372l-.026,0c-.371.024-.722.047-1.071.1l-.052.008c-.137.02-.273.04-.4.053a2.3,2.3,0,0,1-.259.014A4.125,4.125,0,0,1,27.211,14.6a2.013,2.013,0,0,1-.058-1.888,1.559,1.559,0,0,1,1.287-.841c.054-.005.1-.008.152-.008a2.075,2.075,0,0,1,1.153.485l.407.255a5.629,5.629,0,0,0,2.794.783,3.911,3.911,0,0,0,.624-.047A2.894,2.894,0,0,0,36.1,10.352a3.717,3.717,0,0,0-.349-1.127,2.407,2.407,0,0,1-.19-.493.485.485,0,0,1,0-.182,1.12,1.12,0,0,1,.679-.691,4.1,4.1,0,0,1,1.076-.22,20.854,20.854,0,0,1,6.348,19.215,12.665,12.665,0,0,1-.919-2.437M30.628,42.6c-2.564-.849-2.532-3.025-2.205-6a17.033,17.033,0,0,0,.136-1.773c0-3.7-1.527-4.418-3.685-5.023a9.118,9.118,0,0,1-2.379-.925l-.032-.022c-.9-.658-1.674-2-1.343-2.9.18-.424.713-.661,1.33-.935l.35-.158a4.063,4.063,0,0,0,1.756-1.322,3.784,3.784,0,0,0,.271-.455.48.48,0,0,1,.169-.268,2.073,2.073,0,0,1,1.279-.3c.087,0,.18,0,.282.006a11.97,11.97,0,0,1,4.354,1.213c.582.267,1.211.5,1.915.746,2.124.758,3.428,1.31,3.636,2.6a3.851,3.851,0,0,1-.188,1.416,3.749,3.749,0,0,0,.431,3.569,5.677,5.677,0,0,0,2.867,1.4,12.018,12.018,0,0,1,1.364.447A21.269,21.269,0,0,1,30.628,42.6" transform="translate(0)" fill="#fff" stroke="#fff" stroke-width="1"/>
  </g>
</svg>
