<svg id="icon" xmlns="http://www.w3.org/2000/svg" width="60" height="60" viewBox="0 0 60 60">
  <rect id="area" width="60" height="60" fill="none"/>
  <g id="그룹_18656" data-name="그룹 18656" transform="translate(7 7)">
    <g id="그룹_18657" data-name="그룹 18657">
      <path id="패스_8598" data-name="패스 8598" d="M305.737,10.778c2.235,0,3.922-2.588,3.922-6.018,0-4.417-3-4.76-3.922-4.76s-3.921.343-3.921,4.76c0,3.43,1.686,6.018,3.921,6.018m0-8.806c.837,0,1.949.289,1.949,2.788,0,2.315-1.029,4.046-1.949,4.046s-1.949-1.731-1.949-4.046c0-2.5,1.112-2.788,1.949-2.788" transform="translate(-270.263)" fill="#fff" stroke="#fff" stroke-width="1"/>
      <path id="패스_8599" data-name="패스 8599" d="M239.633,120.147h19.079a.986.986,0,1,0,0-1.971h-1.253c-.379-5.79-4.045-5.871-4.209-5.871a.955.955,0,0,0-.949.945,1.014,1.014,0,0,0,.936,1.027c.863.075,1.893,1,2.2,3.354a.482.482,0,0,1-.476.544H243.388a.482.482,0,0,1-.477-.544c.3-2.346,1.328-3.271,2.185-3.354l.032,0a.986.986,0,0,0-.033-1.97c-.165,0-3.831.081-4.209,5.871h-1.253a.986.986,0,1,0,0,1.971" transform="translate(-213.698 -100.564)" fill="#fff" stroke="#fff" stroke-width="1"/>
      <path id="패스_8600" data-name="패스 8600" d="M301.817,257.444c0,3.431,1.686,6.018,3.921,6.018s3.922-2.587,3.922-6.018c0-4.416-3-4.759-3.922-4.759s-3.921.343-3.921,4.759m5.87,0c0,2.316-1.029,4.046-1.949,4.046s-1.949-1.73-1.949-4.046c0-2.5,1.112-2.788,1.949-2.788s1.949.289,1.949,2.788" transform="translate(-270.263 -226.268)" fill="#fff" stroke="#fff" stroke-width="1"/>
      <path id="패스_8601" data-name="패스 8601" d="M258.712,370.856h-1.253c-.379-5.789-4.045-5.871-4.209-5.871a.955.955,0,0,0-.949.945,1.014,1.014,0,0,0,.936,1.027c.863.075,1.893,1,2.2,3.354a.482.482,0,0,1-.477.544H243.389a.482.482,0,0,1-.478-.543c.3-2.346,1.328-3.271,2.185-3.354l.032,0a.986.986,0,0,0-.033-1.971c-.165,0-3.831.081-4.209,5.871h-1.253a.986.986,0,0,0,0,1.972h19.079a.986.986,0,0,0,0-1.972" transform="translate(-213.698 -326.827)" fill="#fff" stroke="#fff" stroke-width="1"/>
      <path id="패스_8602" data-name="패스 8602" d="M67.09,10.778c2.235,0,3.921-2.588,3.921-6.018,0-4.417-3-4.76-3.921-4.76s-3.922.343-3.922,4.76c0,3.43,1.686,6.018,3.922,6.018m0-8.806c.837,0,1.949.289,1.949,2.788,0,2.315-1.029,4.046-1.949,4.046S65.141,7.075,65.141,4.76c0-2.5,1.113-2.788,1.949-2.788" transform="translate(-56.565)" fill="#fff" stroke="#fff" stroke-width="1"/>
      <path id="패스_8603" data-name="패스 8603" d="M.986,120.147H20.065a.986.986,0,1,0,0-1.971H18.812c-.379-5.79-4.045-5.871-4.209-5.871a.956.956,0,0,0-.949.945,1.015,1.015,0,0,0,.936,1.027c.863.075,1.893,1,2.2,3.354a.482.482,0,0,1-.477.544H4.741a.482.482,0,0,1-.477-.544c.3-2.346,1.327-3.271,2.185-3.354l.032,0a.986.986,0,0,0-.033-1.97c-.164,0-3.831.081-4.209,5.871H.986a.986.986,0,1,0,0,1.971" transform="translate(0 -100.564)" fill="#fff" stroke="#fff" stroke-width="1"/>
      <path id="패스_8604" data-name="패스 8604" d="M63.168,257.444c0,3.431,1.686,6.018,3.922,6.018s3.921-2.587,3.921-6.018c0-4.416-3-4.759-3.921-4.759s-3.922.343-3.922,4.759m5.871,0c0,2.316-1.029,4.046-1.949,4.046s-1.949-1.73-1.949-4.046c0-2.5,1.113-2.788,1.949-2.788s1.949.289,1.949,2.788" transform="translate(-56.564 -226.268)" fill="#fff" stroke="#fff" stroke-width="1"/>
      <path id="패스_8605" data-name="패스 8605" d="M20.065,370.856H18.812c-.379-5.789-4.045-5.871-4.209-5.871a.956.956,0,0,0-.949.945,1.014,1.014,0,0,0,.936,1.027c.863.075,1.893,1,2.2,3.354a.482.482,0,0,1-.478.544H4.742a.482.482,0,0,1-.478-.543c.3-2.346,1.327-3.271,2.185-3.354l.032,0a.986.986,0,0,0-.033-1.971c-.164,0-3.831.081-4.209,5.871H.986a.986.986,0,0,0,0,1.972H20.065a.986.986,0,1,0,0-1.972" transform="translate(0 -326.827)" fill="#fff" stroke="#fff" stroke-width="1"/>
    </g>
  </g>
</svg>
