<svg xmlns="http://www.w3.org/2000/svg" width="28.836" height="20.631" viewBox="0 0 28.836 20.631">
  <path id="빼기_7" data-name="빼기 7" d="M13.919,19.631c-.023,0-2.213,0-4.623-.072-1.427-.043-2.649-.1-3.636-.173a16.448,16.448,0,0,1-2.616-.338,3.5,3.5,0,0,1-2.462-2.48,23.5,23.5,0,0,1-.508-4.2C0,10.977,0,9.828,0,9.815S0,8.654.073,7.261a23.467,23.467,0,0,1,.508-4.2A3.5,3.5,0,0,1,3.043.585,15.98,15.98,0,0,1,5.659.248C6.646.173,7.869.115,9.3.074,11.706,0,13.9,0,13.919,0s2.212,0,4.623.074c1.424.041,2.647.1,3.638.174a15.98,15.98,0,0,1,2.614.337,3.5,3.5,0,0,1,2.461,2.479,23.861,23.861,0,0,1,.511,4.2c.069,1.393.07,2.546.07,2.554s0,1.162-.07,2.557a23.9,23.9,0,0,1-.511,4.2,3.5,3.5,0,0,1-2.461,2.48,16.374,16.374,0,0,1-2.614.338c-.992.071-2.214.13-3.638.173C16.13,19.631,13.942,19.631,13.919,19.631ZM11.136,5.608h0v8.415l7.232-4.209L11.136,5.608Z" transform="translate(0.5 0.5)" fill="#fff" stroke="rgba(0,0,0,0)" stroke-miterlimit="10" stroke-width="1"/>
</svg>
