<svg xmlns="http://www.w3.org/2000/svg" width="276.001" height="39.999" viewBox="0 0 276.001 39.999">
    <g data-name="그룹 101">
        <path data-name="패스 126" d="M114.144 35.115a7.106 7.106 0 0 0-10.1 2.118 7.1 7.1 0 0 1-12.835-1.951l-.021-.076c-.007-.023-.013-.059-.022-.091a9.1 9.1 0 0 1-.366-2.821c0-6.365 6.535-13.453 15.939-13.453A17.955 17.955 0 0 1 123.3 30.25a5.586 5.586 0 0 1-.074-.216 20.288 20.288 0 0 0-39.478 6.58c0 10.014 7.222 18.583 17.244 18.583a16.282 16.282 0 0 0 15.819-10.653 7.818 7.818 0 0 0-2.67-9.43" transform="translate(-83.751 -16.331)" style="fill:#002b51"/>
        <path data-name="패스 127" d="M123.984 30.844a17.889 17.889 0 0 0-16.7-11.8c-9.4 0-15.939 7.089-15.939 13.453a9.1 9.1 0 0 0 .366 2.821 5.934 5.934 0 0 1-.185-1.447c0-6.629 6.637-11.222 13.46-11.222a16.724 16.724 0 0 1 16.727 16.722A18.441 18.441 0 0 1 111.5 55.886v.006a20.326 20.326 0 0 0 12.486-25.048" transform="translate(-84.307 -16.529)" style="fill:#da0021"/>
    </g>
    <g data-name="그룹 18652">
        <text data-name="Committee for the Five northern Korean Provinces" transform="translate(51.001 17.999)" style="fill:#575757;font-size:16px;font-family:Roboto-Medium,Roboto;font-weight:500"><tspan x="0" y="0">Committee for the</tspan><tspan x="0" y="18">Five northern Korean Provinces</tspan></text>
    </g>
</svg>
