<svg id="ico-basis" xmlns="http://www.w3.org/2000/svg" xmlns:xlink="http://www.w3.org/1999/xlink" width="60" height="60" viewBox="0 0 60 60">
  <defs>
    <clipPath id="clip-path">
      <rect id="사각형_24144" data-name="사각형 24144" width="46" height="46" fill="#fff" stroke="#fff" stroke-width="1"/>
    </clipPath>
  </defs>
  <rect id="area" width="60" height="60" fill="none"/>
  <g id="그룹_18691" data-name="그룹 18691" transform="translate(7 7)">
    <g id="그룹_18690" data-name="그룹 18690" clip-path="url(#clip-path)">
      <path id="패스_8638" data-name="패스 8638" d="M.986,46A.987.987,0,0,1,0,45.014V28.871a.987.987,0,0,1,.986-.986H6.856a.481.481,0,0,0,.482-.482V23a.988.988,0,0,1,.986-.986h2.935a.481.481,0,0,0,.482-.482V18.6a.481.481,0,0,0-.482-.482H9.792a.986.986,0,1,1,0-1.972h3.486a.482.482,0,0,0,.482-.482v-.55a9.294,9.294,0,0,1,7.846-9.123.482.482,0,0,0,.408-.477V.986a.986.986,0,1,1,1.972,0V5.512a.483.483,0,0,0,.409.477,9.294,9.294,0,0,1,7.846,9.123v.55a.482.482,0,0,0,.482.482h4.953a.986.986,0,0,1,0,1.972H34.74a.482.482,0,0,0-.482.482v2.935a.482.482,0,0,0,.482.482h2.936a.987.987,0,0,1,.986.986v4.4a.482.482,0,0,0,.482.482h5.87a.988.988,0,0,1,.986.986V45.014a.988.988,0,0,1-.986.986ZM39.144,29.856a.482.482,0,0,0-.482.482V43.547a.482.482,0,0,0,.482.482h4.4a.482.482,0,0,0,.482-.482V30.338a.482.482,0,0,0-.482-.482ZM9.792,23.986a.481.481,0,0,0-.482.482V43.547a.482.482,0,0,0,.482.482H36.208a.482.482,0,0,0,.482-.482V24.468a.481.481,0,0,0-.482-.482Zm-7.338,5.87a.482.482,0,0,0-.482.482V43.547a.482.482,0,0,0,.482.482h4.4a.482.482,0,0,0,.482-.482V30.338a.482.482,0,0,0-.482-.482Zm11.741-11.74a.481.481,0,0,0-.482.482v2.935a.481.481,0,0,0,.482.482H31.806a.481.481,0,0,0,.482-.482V18.6a.481.481,0,0,0-.482-.482ZM23,7.842a7.278,7.278,0,0,0-7.269,7.269v.55a.482.482,0,0,0,.482.482H29.788a.482.482,0,0,0,.482-.482v-.55A7.278,7.278,0,0,0,23,7.842" fill="#fff" stroke="#fff" stroke-width="1"/>
      <path id="패스_8639" data-name="패스 8639" d="M19.937,52.253a.988.988,0,0,1-.986-.986V40.994a.986.986,0,0,1,1.972,0V51.267a.988.988,0,0,1-.986.986" transform="translate(-5.743 -12.124)" fill="#fff" stroke="#fff" stroke-width="1"/>
      <path id="패스_8640" data-name="패스 8640" d="M28.36,52.253a.988.988,0,0,1-.986-.986V40.994a.986.986,0,0,1,1.972,0V51.267a.988.988,0,0,1-.986.986" transform="translate(-8.295 -12.124)" fill="#fff" stroke="#fff" stroke-width="1"/>
      <path id="패스_8641" data-name="패스 8641" d="M36.782,52.253a.988.988,0,0,1-.986-.986V40.994a.986.986,0,1,1,1.972,0V51.267a.987.987,0,0,1-.986.986" transform="translate(-10.847 -12.124)" fill="#fff" stroke="#fff" stroke-width="1"/>
      <path id="패스_8642" data-name="패스 8642" d="M45.205,52.253a.988.988,0,0,1-.986-.986V40.994a.986.986,0,1,1,1.972,0V51.267a.988.988,0,0,1-.986.986" transform="translate(-13.4 -12.124)" fill="#fff" stroke="#fff" stroke-width="1"/>
    </g>
  </g>
</svg>
