<svg id="icon" xmlns="http://www.w3.org/2000/svg" xmlns:xlink="http://www.w3.org/1999/xlink" width="60" height="60" viewBox="0 0 60 60">
  <defs>
    <clipPath id="clip-path">
      <rect id="사각형_24132" data-name="사각형 24132" width="46" height="44.318" fill="#fff" stroke="#fff" stroke-width="1"/>
    </clipPath>
  </defs>
  <rect id="area" width="60" height="60" fill="none"/>
  <g id="그룹_18659" data-name="그룹 18659" transform="translate(7 8)">
    <g id="그룹_18658" data-name="그룹 18658" clip-path="url(#clip-path)">
      <path id="패스_8606" data-name="패스 8606" d="M191.457,0H171.269a2.815,2.815,0,0,0-2.812,2.812V26.365a1.13,1.13,0,1,0,2.26,0V2.812a.552.552,0,0,1,.552-.552h20.188a.552.552,0,0,1,.552.552V29.2a1.079,1.079,0,0,1-1.078,1.078H186.41a1.137,1.137,0,0,0-.706.247l-5.678,4.542a.549.549,0,0,1-.345.121.552.552,0,0,1-.552-.552V31.412a1.131,1.131,0,0,0-1.13-1.13h-5.047a1.13,1.13,0,1,0,0,2.26h3.365a.552.552,0,0,1,.552.552v5.047a1.13,1.13,0,0,0,1.13,1.13,1.135,1.135,0,0,0,.706-.247l7.951-6.361a.551.551,0,0,1,.345-.121h3.931a3.342,3.342,0,0,0,3.338-3.338V2.812A2.815,2.815,0,0,0,191.457,0" transform="translate(-148.269)" fill="#fff" stroke="#fff" stroke-width="1"/>
      <path id="패스_8607" data-name="패스 8607" d="M54.467,161.434c2.992,0,5.336-3.452,5.336-7.859,0-3.926-1.945-6.177-5.336-6.177s-5.336,2.252-5.336,6.177c0,4.407,2.344,7.859,5.336,7.859m0-11.776c.761,0,3.076,0,3.076,3.917,0,2.983-1.437,5.6-3.076,5.6s-3.076-2.616-3.076-5.6c0-3.917,2.315-3.917,3.076-3.917" transform="translate(-43.243 -129.733)" fill="#fff" stroke="#fff" stroke-width="1"/>
      <path id="패스_8608" data-name="패스 8608" d="M0,290.32a1.131,1.131,0,0,0,1.13,1.13H21.318a1.132,1.132,0,0,0,1.13-1.13c0-3.562-.894-6.2-2.658-7.854a6.164,6.164,0,0,0-4.156-1.685c-.08,0-.137,0-.159,0a1.117,1.117,0,0,0-1.039,1.184,1.153,1.153,0,0,0,1.148,1.073h.052a.561.561,0,0,1,.094.008l-.016,0a3.96,3.96,0,0,1,2.583,1.12,7.064,7.064,0,0,1,1.8,4.412.551.551,0,0,1-.549.613H2.9a.552.552,0,0,1-.549-.613,7.064,7.064,0,0,1,1.8-4.413,3.915,3.915,0,0,1,2.566-1.132,1.03,1.03,0,0,1,.164.011l.058,0a1.114,1.114,0,0,0,1.087-1.059,1.129,1.129,0,0,0-1.043-1.2c-.032,0-.089,0-.168,0a6.164,6.164,0,0,0-4.156,1.685C.894,284.115,0,286.758,0,290.32" transform="translate(0 -247.132)" fill="#fff" stroke="#fff" stroke-width="1"/>
      <path id="패스_8609" data-name="패스 8609" d="M225.739,128.6h10.094a1.13,1.13,0,0,0,0-2.261H225.739a1.13,1.13,0,0,0,0,2.261" transform="translate(-197.692 -111.201)" fill="#fff" stroke="#fff" stroke-width="1"/>
      <path id="패스_8610" data-name="패스 8610" d="M225.739,72.45h10.094a1.13,1.13,0,0,0,0-2.26H225.739a1.13,1.13,0,0,0,0,2.26" transform="translate(-197.692 -61.778)" fill="#fff" stroke="#fff" stroke-width="1"/>
      <path id="패스_8611" data-name="패스 8611" d="M225.739,184.755h6.729a1.13,1.13,0,1,0,0-2.26h-6.729a1.13,1.13,0,1,0,0,2.26" transform="translate(-197.692 -160.625)" fill="#fff" stroke="#fff" stroke-width="1"/>
    </g>
  </g>
</svg>
