<svg id="ico-support" xmlns="http://www.w3.org/2000/svg" width="60" height="60" viewBox="0 0 60 60">
  <rect id="area" width="60" height="60" fill="none"/>
  <g id="그룹_18689" data-name="그룹 18689" transform="translate(7 7)">
    <path id="패스_8630" data-name="패스 8630" d="M43.946,16.412c-1.5,0-2.678-1.717-2.678-3.908,0-1.958.976-3.081,2.678-3.081s2.677,1.123,2.677,3.081c0,2.191-1.176,3.908-2.677,3.908m0-5.783c-.4,0-1.471,0-1.471,1.875,0,1.592.776,2.7,1.471,2.7s1.471-1.109,1.471-2.7c0-1.875-1.068-1.875-1.471-1.875" transform="translate(-12.506 -2.855)" fill="#fff" stroke="#fff" stroke-width="1"/>
    <path id="패스_8631" data-name="패스 8631" d="M37.223,27.613a.6.6,0,0,1-.6-.548c-.371-4.029,1.848-5.7,3.074-6.026a.571.571,0,0,1,.153-.02.6.6,0,0,1,.162,1.184c-.231.07-2.2.758-2.224,3.906a.294.294,0,0,0,.295.3h8.95a.3.3,0,0,0,.295-.3c-.029-3.224-2.132-3.879-2.221-3.905a.6.6,0,0,1,.161-1.186.584.584,0,0,1,.151.02c1.225.322,3.444,2,3.074,6.026a.6.6,0,0,1-.6.548Z" transform="translate(-11.085 -6.369)" fill="#fff" stroke="#fff" stroke-width="1"/>
    <path id="패스_8632" data-name="패스 8632" d="M45.469,45.706a3.4,3.4,0,0,0-3.4-2.206,7.523,7.523,0,0,0-1.846.257c-.854.218-1.733.465-2.582.7l-.027.008a49.759,49.759,0,0,1-5.97,1.413.506.506,0,0,1-.072.006.481.481,0,0,1-.475-.407l-.016-.106c-.008-.062-.017-.125-.031-.188-.427-1.857-2.217-3.842-5.963-3.842a12.109,12.109,0,0,0-1.536.1,11.3,11.3,0,0,1-1.4.1,3.97,3.97,0,0,1-3.6-1.722,4.664,4.664,0,0,0-1.528-1.349,6.177,6.177,0,0,0-2.679-.533,15.344,15.344,0,0,0-5.623,1.293.482.482,0,0,1-.67-.443V34.677a.988.988,0,0,0-.986-.986H.986A.988.988,0,0,0,0,34.677V55.224a.987.987,0,0,0,.986.986H7.06a.987.987,0,0,0,.986-.986V52.363a.481.481,0,0,1,.482-.482.468.468,0,0,1,.148.024c4.01,1.294,13.69,4.3,16.964,4.3,3.494,0,15.991-4.537,19.57-6.829.353-.226,1.426-.913.26-3.674M6.074,53.756a.482.482,0,0,1-.482.482H2.453a.481.481,0,0,1-.482-.482V36.145a.482.482,0,0,1,.482-.482H5.592a.482.482,0,0,1,.482.482Zm37.682-5.8c-3.932,2.289-15.446,6.28-18.117,6.28-3.374,0-15.85-4.042-17.261-4.5a.482.482,0,0,1-.332-.458V42.035a.482.482,0,0,1,.251-.423,13.851,13.851,0,0,1,6.046-1.7,4.265,4.265,0,0,1,1.824.342,3.142,3.142,0,0,1,.856.821l.016.019a5.827,5.827,0,0,0,5.14,2.423,12.757,12.757,0,0,0,1.616-.11,10.29,10.29,0,0,1,1.306-.089,4.417,4.417,0,0,1,3.484,1.252A2.436,2.436,0,0,1,29.17,45.9a.482.482,0,0,1-.309.5l-.6.229a12.381,12.381,0,0,1-3.536,1.01,1.539,1.539,0,0,1-.358-.038c-.747-.185-2.929-.744-6.491-1.662h0l-2.262-.584-.013,0-.1-.026,0,.01a.98.98,0,0,0-.487,1.886l0,.012,2.355.608.017,0c2.394.618,5.576,1.437,6.514,1.669a3.34,3.34,0,0,0,.808.091,13.2,13.2,0,0,0,4.272-1.137l.045-.017c.356-.139.693-.27.981-.365h0c.029-.015.059-.031.09-.043A.471.471,0,0,1,30.237,48a39.873,39.873,0,0,0,7.9-1.634c.952-.268,1.746-.489,2.567-.7a5.635,5.635,0,0,1,1.359-.2,1.48,1.48,0,0,1,1.584,1.011,6.075,6.075,0,0,1,.331.96.482.482,0,0,1-.227.523" transform="translate(0 -10.209)" fill="#fff" stroke="#fff" stroke-width="1"/>
    <path id="패스_8633" data-name="패스 8633" d="M39.3,28.389a14.376,14.376,0,0,1-13.542-9.463,14.522,14.522,0,0,1-.463-1.583.986.986,0,1,1,1.922-.442,12.406,12.406,0,0,0,24.47-2.706A12.319,12.319,0,0,0,39.3,1.972a12.464,12.464,0,0,0-4.131.7.967.967,0,0,1-.327.057.988.988,0,0,1-.323-1.92A14.487,14.487,0,0,1,39.3,0,14.294,14.294,0,0,1,53.657,14.194,14.294,14.294,0,0,1,39.3,28.389" transform="translate(-7.657)" fill="#fff" stroke="#fff" stroke-width="1"/>
    <path id="패스_8634" data-name="패스 8634" d="M26.254,5.546a.988.988,0,0,1-.986-.986V3.092a.986.986,0,1,1,1.972,0V4.559a.988.988,0,0,1-.986.986" transform="translate(-7.657 -0.638)" fill="#fff" stroke="#fff" stroke-width="1"/>
    <path id="패스_8635" data-name="패스 8635" d="M26.254,16.074a.988.988,0,0,1-.986-.986V13.62a.986.986,0,1,1,1.972,0v1.467a.988.988,0,0,1-.986.986" transform="translate(-7.657 -3.829)" fill="#fff" stroke="#fff" stroke-width="1"/>
    <path id="패스_8636" data-name="패스 8636" d="M30.465,10.395a.986.986,0,1,1,0-1.972h1.468a.986.986,0,0,1,0,1.972Z" transform="translate(-8.933 -2.552)" fill="#fff" stroke="#fff" stroke-width="1"/>
    <path id="패스_8637" data-name="패스 8637" d="M19.937,10.395a.986.986,0,1,1,0-1.972h1.468a.986.986,0,0,1,0,1.972Z" transform="translate(-5.743 -2.552)" fill="#fff" stroke="#fff" stroke-width="1"/>
  </g>
</svg>
