<svg xmlns="http://www.w3.org/2000/svg" width="209.59" height="55" viewBox="0 0 209.59 55">
  <g id="MI" transform="translate(-83.751 -16.331)">
    <g id="그룹_101" data-name="그룹 101" transform="translate(83.751 16.331)">
      <path id="패스_126" data-name="패스 126" d="M126.218,42.577A9.929,9.929,0,0,0,112.1,45.536a9.915,9.915,0,0,1-17.934-2.726h0c-.013-.041-.019-.074-.03-.106s-.018-.083-.031-.127a12.712,12.712,0,0,1-.512-3.942c0-8.894,9.131-18.8,22.271-18.8,13.461,0,21.164,10.247,23.154,15.942-.039-.106-.071-.2-.1-.3a28.348,28.348,0,0,0-55.161,9.194c0,13.992,10.092,25.965,24.094,25.965,11.161,0,18.667-6.255,22.1-14.884a10.924,10.924,0,0,0-3.731-13.176" transform="translate(-83.751 -16.331)" fill="#002b51"/>
      <path id="패스_127" data-name="패스 127" d="M136.949,35.533c-1.661-5.557-9.414-16.494-23.329-16.494-13.14,0-22.271,9.905-22.271,18.8a12.712,12.712,0,0,0,.512,3.942,8.292,8.292,0,0,1-.259-2.021c0-9.263,9.273-15.68,18.807-15.68A23.368,23.368,0,0,1,133.78,47.443,25.766,25.766,0,0,1,119.5,70.524v.008a28.4,28.4,0,0,0,17.446-35" transform="translate(-81.51 -15.532)" fill="#da0021"/>
    </g>
    <g id="그룹_102" data-name="그룹 102" transform="translate(155.465 19.688)">
      <path id="패스_128" data-name="패스 128" d="M142.459,20.287V18.923h2.151v1.364H147.6V21.97H139.13V20.287Zm4.789,5.518a3.017,3.017,0,0,1-.3,1.329,3.642,3.642,0,0,1-.805,1.085,3.82,3.82,0,0,1-1.169.739,3.9,3.9,0,0,1-2.862,0,3.82,3.82,0,0,1-1.169-.739,3.616,3.616,0,0,1-.8-1.085,3,3,0,0,1-.3-1.329,3.062,3.062,0,0,1,.3-1.336,3.59,3.59,0,0,1,.8-1.094,3.845,3.845,0,0,1,1.169-.739,3.918,3.918,0,0,1,2.862,0,3.845,3.845,0,0,1,1.169.739,3.617,3.617,0,0,1,.805,1.094A3.079,3.079,0,0,1,147.248,25.8Zm-1.889-.018a1.727,1.727,0,0,0-.532-1.263,1.752,1.752,0,0,0-1.282-.532,1.716,1.716,0,0,0-1.272.532,1.74,1.74,0,0,0-.524,1.263,1.709,1.709,0,0,0,.524,1.254,1.728,1.728,0,0,0,1.272.523,1.764,1.764,0,0,0,1.282-.523A1.7,1.7,0,0,0,145.359,25.786Zm7.146,6.6a3.207,3.207,0,0,1-.317,1.41,4.029,4.029,0,0,1-.842,1.169,4.275,4.275,0,0,1-1.254.807,3.889,3.889,0,0,1-1.515.3,3.953,3.953,0,0,1-1.524-.3,4.22,4.22,0,0,1-1.263-.807,3.981,3.981,0,0,1-.842-1.169,3.208,3.208,0,0,1-.319-1.41,3.287,3.287,0,0,1,.319-1.422,3.955,3.955,0,0,1,.842-1.178,4.163,4.163,0,0,1,1.263-.8,3.93,3.93,0,0,1,1.524-.3,3.866,3.866,0,0,1,1.515.3,4.216,4.216,0,0,1,1.254.8,4,4,0,0,1,.842,1.178A3.286,3.286,0,0,1,152.5,32.391Zm-1.983-.019a1.867,1.867,0,0,0-.58-1.365,1.892,1.892,0,0,0-1.383-.581,1.865,1.865,0,0,0-1.377.581,1.887,1.887,0,0,0-.57,1.365,1.854,1.854,0,0,0,.57,1.356,1.875,1.875,0,0,0,1.377.571,1.9,1.9,0,0,0,1.383-.571A1.834,1.834,0,0,0,150.522,32.371Zm-.038-4.189h-1.871v-8.9h1.871v3.534h1.665V19.26h1.945v9.146H152.15V24.645h-1.665Z" transform="translate(-139.13 -18.923)" fill="#575757"/>
      <path id="패스_129" data-name="패스 129" d="M152.51,21.388V19.649h9.352v1.739h-3.983l4.153,5.071-1.422,1.159-3.329-4.153L153.97,27.9l-1.479-1.2,4.135-5.313Zm12.945,10.627a3.578,3.578,0,0,1-.337,1.542,4.236,4.236,0,0,1-.9,1.263,4.406,4.406,0,0,1-1.357.86,4.265,4.265,0,0,1-1.636.319,4.336,4.336,0,0,1-1.646-.319,4.38,4.38,0,0,1-1.367-.86,4.26,4.26,0,0,1-.9-1.263,3.6,3.6,0,0,1-.337-1.542,3.668,3.668,0,0,1,.337-1.553,4.225,4.225,0,0,1,.9-1.273,4.38,4.38,0,0,1,1.367-.86,4.336,4.336,0,0,1,1.646-.319,4.265,4.265,0,0,1,1.636.319,4.406,4.406,0,0,1,1.357.86,4.2,4.2,0,0,1,.9,1.273A3.649,3.649,0,0,1,165.455,32.015ZM163.472,32a2.143,2.143,0,0,0-.673-1.58,2.19,2.19,0,0,0-1.59-.664A2.266,2.266,0,0,0,158.965,32a2.128,2.128,0,0,0,.663,1.572,2.18,2.18,0,0,0,1.581.654,2.211,2.211,0,0,0,1.59-.654A2.118,2.118,0,0,0,163.472,32Zm1.347-4.172V24.288h-3.03V22.549h3.03V19.183h2.02v8.64Z" transform="translate(-135.189 -18.846)" fill="#575757"/>
      <path id="패스_130" data-name="패스 130" d="M174.661,23.745a4.115,4.115,0,0,1-.365,1.722,4.606,4.606,0,0,1-1,1.421,4.961,4.961,0,0,1-1.469.954,4.674,4.674,0,0,1-3.573,0,4.977,4.977,0,0,1-1.468-.954,4.628,4.628,0,0,1-1-1.421,4.252,4.252,0,0,1,0-3.442,4.649,4.649,0,0,1,1-1.422,4.977,4.977,0,0,1,1.468-.954,4.674,4.674,0,0,1,3.573,0,4.961,4.961,0,0,1,1.469.954,4.627,4.627,0,0,1,1,1.422A4.112,4.112,0,0,1,174.661,23.745Zm-6.191,5.969V33.36H179.43v1.8H166.45V29.714Zm4.246-5.949a2.509,2.509,0,0,0-.216-1.03,2.623,2.623,0,0,0-1.422-1.43,2.443,2.443,0,0,0-1.019-.215,2.506,2.506,0,0,0-1.028.215,3,3,0,0,0-.861.57,2.971,2.971,0,0,0-.57.86,2.508,2.508,0,0,0-.215,1.03,2.448,2.448,0,0,0,.215,1.019,2.609,2.609,0,0,0,1.431,1.422,2.507,2.507,0,0,0,1.028.215,2.443,2.443,0,0,0,1.019-.215,2.643,2.643,0,0,0,1.422-1.422A2.448,2.448,0,0,0,172.716,23.765Zm6.3,5.856H177V19.183h2.02v3.552h2.339v2h-2.339Z" transform="translate(-131.375 -18.846)" fill="#575757"/>
      <path id="패스_131" data-name="패스 131" d="M178.857,21.388V19.649h9.354v1.739h-3.965l4.134,6.1-1.533,1.03-3.218-4.9-3.217,5.031L178.839,27.6l4.115-6.211Zm1.123,13.768V29.714H182V33.36h11.336v1.8Zm11.186-5.536v-4.81h-3.03V23.016h3.03V19.183h2.021V29.62Z" transform="translate(-127.417 -18.846)" fill="#575757"/>
      <path id="패스_132" data-name="패스 132" d="M192.071,29.426h14.963v1.795h-6.471V35.41h-2.038V31.221h-6.454Zm3.2-7.969h8.568V19.4h2v7.837h-12.57V19.4h2Zm8.568,1.757H195.27v2.245h8.568Z" transform="translate(-123.514 -18.783)" fill="#575757"/>
    </g>
    <g id="그룹_103" data-name="그룹 103" transform="translate(157.294 40.862)">
      <path id="패스_133" data-name="패스 133" d="M152.787,43.838a5.445,5.445,0,0,1-.493,2.293,6.14,6.14,0,0,1-3.256,3.153,6.228,6.228,0,0,1-4.747,0,6.239,6.239,0,0,1-1.937-1.273,6.158,6.158,0,0,1-1.318-1.88,5.577,5.577,0,0,1,0-4.587,6.152,6.152,0,0,1,1.318-1.879,6.239,6.239,0,0,1,1.937-1.273,6.228,6.228,0,0,1,4.747,0,6.239,6.239,0,0,1,1.937,1.273,6.175,6.175,0,0,1,1.318,1.879A5.445,5.445,0,0,1,152.787,43.838Zm-2.454,0a3.709,3.709,0,0,0-.286-1.445,3.848,3.848,0,0,0-.768-1.191,3.7,3.7,0,0,0-1.181-.791,3.733,3.733,0,0,0-2.867,0,3.7,3.7,0,0,0-1.181.791,3.847,3.847,0,0,0-.768,1.191,3.788,3.788,0,0,0,0,2.889,3.838,3.838,0,0,0,.768,1.193,3.7,3.7,0,0,0,1.181.793,3.733,3.733,0,0,0,2.867,0,3.7,3.7,0,0,0,1.181-.793,3.839,3.839,0,0,0,.768-1.193A3.707,3.707,0,0,0,150.333,43.838ZM156,35.469h2.477V55.441H156Z" transform="translate(-140.542 -35.216)" fill="#575757"/>
      <path id="패스_134" data-name="패스 134" d="M164.939,49.114V47.372h-7.911V45.193h18.345v2.179h-7.934v1.742H173.9v6.353h-2.476v-4.2H158.266V49.114Zm6.512-11.694V35.54H173.9v8.07H158.5V35.54h2.454v1.88Zm0,4.035v-1.9h-10.5v1.9Z" transform="translate(-135.679 -35.196)" fill="#575757"/>
      <path id="패스_135" data-name="패스 135" d="M175.684,45.719l-2.063-.94,1.743-7.911h8.277v2.178h-6.237l-.781,3.669a4.374,4.374,0,0,1,2.523-.734,5.307,5.307,0,0,1,3.784,9.174,6.427,6.427,0,0,1-6.42,1.226,6.315,6.315,0,0,1-1.743-1,5.889,5.889,0,0,1-1.7-2.317l2.293-1.169a4.663,4.663,0,0,0,1.077,1.766,3.077,3.077,0,0,0,2.223.917,3.224,3.224,0,0,0,2.317-.94,3.345,3.345,0,0,0,.962-2.385,3.172,3.172,0,0,0-.94-2.293,3.115,3.115,0,0,0-2.339-.894A4.261,4.261,0,0,0,175.684,45.719Z" transform="translate(-130.947 -34.804)" fill="#575757"/>
      <path id="패스_136" data-name="패스 136" d="M185.3,46.584V36.266h15.409v2.178H187.78v5.962h12.98v2.178h-6.512v4.953h7.933v2.2H183.836v-2.2h7.911V46.584Z" transform="translate(-127.772 -34.981)" fill="#575757"/>
      <path id="패스_137" data-name="패스 137" d="M213.191,49.387h-5.5V54.8h-2.477V49.387h-5.3v-2.2h13.276Zm-1.375-8.507a4.6,4.6,0,0,1-.425,1.949,5.116,5.116,0,0,1-1.158,1.6,5.553,5.553,0,0,1-1.72,1.09,5.642,5.642,0,0,1-4.174,0,5.57,5.57,0,0,1-1.72-1.09,5.117,5.117,0,0,1-1.158-1.6,4.684,4.684,0,0,1,0-3.9,5.117,5.117,0,0,1,1.158-1.6,5.6,5.6,0,0,1,7.613,0,5.116,5.116,0,0,1,1.158,1.6A4.6,4.6,0,0,1,211.816,40.881Zm-2.431,0a2.782,2.782,0,0,0-.872-2.053,2.865,2.865,0,0,0-2.086-.86,2.912,2.912,0,1,0,0,5.823,2.864,2.864,0,0,0,2.086-.859A2.784,2.784,0,0,0,209.385,40.881Zm5.388-5.412h2.477V55.441h-2.477Z" transform="translate(-123.029 -35.216)" fill="#575757"/>
      <path id="패스_138" data-name="패스 138" d="M229.341,47.519h-5.3v3.026h-2.476V47.519h-5.5V45.34h13.277Zm-11.924,7.636V49.445h2.476V53h13.736v2.156Zm10.158-15.25a4.1,4.1,0,0,1-.4,1.8,5.109,5.109,0,0,1-1.066,1.479,5.349,5.349,0,0,1-1.594.985,5.29,5.29,0,0,1-3.876,0,5.342,5.342,0,0,1-1.593-.985,5.111,5.111,0,0,1-1.067-1.479,4.248,4.248,0,0,1,0-3.6,5.111,5.111,0,0,1,1.067-1.479,5.368,5.368,0,0,1,1.593-.985,5.29,5.29,0,0,1,3.876,0,5.376,5.376,0,0,1,1.594.985,5.109,5.109,0,0,1,1.066,1.479A4.106,4.106,0,0,1,227.575,39.906Zm-2.407,0a2.382,2.382,0,0,0-.768-1.788,2.634,2.634,0,0,0-3.647,0,2.466,2.466,0,0,0,0,3.577,2.634,2.634,0,0,0,3.647,0A2.382,2.382,0,0,0,225.168,39.906Zm5.755-4.38H233.4V50.775h-2.477V43.414h-2.774V41.259h2.774Z" transform="translate(-118.265 -35.274)" fill="#575757"/>
      <path id="패스_139" data-name="패스 139" d="M243.632,44.465a4.127,4.127,0,0,1-.378,1.743,4.558,4.558,0,0,1-1.044,1.445,4.806,4.806,0,0,1-1.559.962,5.423,5.423,0,0,1-.666.207v2.523h5.5v2.178H232.213V51.346h5.3V48.823a5.412,5.412,0,0,1-.664-.207,4.778,4.778,0,0,1-1.559-.962,4.537,4.537,0,0,1-1.044-1.445,4.207,4.207,0,0,1,0-3.486,4.532,4.532,0,0,1,1.044-1.444,4.757,4.757,0,0,1,1.559-.962,5.429,5.429,0,0,1,3.806,0,4.784,4.784,0,0,1,1.559.962,4.552,4.552,0,0,1,1.044,1.444A4.132,4.132,0,0,1,243.632,44.465ZM237.4,37.5V35.363h2.682V37.5h4.747v2.132h-12.2V37.5Zm3.829,6.97a2.3,2.3,0,0,0-.723-1.7,2.407,2.407,0,0,0-1.755-.711,2.366,2.366,0,0,0-1.742.711,2.381,2.381,0,0,0,0,3.394,2.366,2.366,0,0,0,1.742.711,2.407,2.407,0,0,0,1.755-.711A2.3,2.3,0,0,0,241.225,44.465Zm5.847-8.965h2.477V55.473h-2.477Z" transform="translate(-113.502 -35.248)" fill="#575757"/>
    </g>
  </g>
</svg>
