<svg xmlns="http://www.w3.org/2000/svg" xmlns:xlink="http://www.w3.org/1999/xlink" width="648" height="892" viewBox="0 0 648 892">
  <defs>
    <clipPath id="clip-path">
      <rect width="282" height="60" fill="none"/>
    </clipPath>
  </defs>
  <g id="img-dummy12-mobile" transform="translate(-36 -340)">
    <g id="BODY" transform="translate(-496 43)">
      <g id="page" transform="translate(-214 -949)">
        <g id="_" data-name="&gt;&gt;" transform="translate(1334 2078)">
          <g id="bg" fill="#fff" stroke="#d0d5d5" stroke-width="2">
            <circle cx="30" cy="30" r="30" stroke="none"/>
            <circle cx="30" cy="30" r="29" fill="none"/>
          </g>
          <g id="icon" transform="translate(60) rotate(90)">
            <rect id="area" width="60" height="60" fill="none"/>
            <g id="icon-2" data-name="icon" transform="translate(21.6 23.55)">
              <path id="패스_250" data-name="패스 250" d="M0,7.8,7.8,0l7.8,7.8" transform="translate(0.6 5.1)" fill="none" stroke="#7f7f7f" stroke-width="3"/>
              <line id="선_205" data-name="선 205" x2="16.8" fill="none" stroke="#7f7f7f" stroke-width="3"/>
            </g>
          </g>
        </g>
        <g id="_2" data-name="&gt;" transform="translate(1264 2078)">
          <g id="bg-2" data-name="bg" fill="#fff" stroke="#d0d5d5" stroke-width="2">
            <circle cx="30" cy="30" r="30" stroke="none"/>
            <circle cx="30" cy="30" r="29" fill="none"/>
          </g>
          <g id="icon-3" data-name="icon" transform="translate(60) rotate(90)">
            <rect id="area-2" data-name="area" width="60" height="60" fill="none"/>
            <path id="패스_250-2" data-name="패스 250" d="M0,7.8,7.8,0l7.8,7.8" transform="translate(22.2 26.1)" fill="none" stroke="#7f7f7f" stroke-width="3"/>
          </g>
        </g>
        <g id="반복_그리드_12" data-name="반복 그리드 12" transform="translate(962 2078)" clip-path="url(#clip-path)">
          <g transform="translate(-987 -2078)">
            <g id="num" transform="translate(-24 -42)">
              <rect id="area-3" data-name="area" width="60" height="60" transform="translate(1017 2120)" fill="none"/>
              <text id="_2-2" data-name="2" transform="translate(1047 2161)" fill="#abb0b0" font-size="30" font-family="Roboto-Regular, Roboto" opacity="0.99"><tspan x="-8.423" y="0">2</tspan></text>
            </g>
            <circle id="타원_79" data-name="타원 79" cx="3" cy="3" r="3" transform="translate(987 2105)" fill="#d0d5d5"/>
          </g>
          <g transform="translate(-915 -2078)">
            <g id="num-2" data-name="num" transform="translate(-24 -42)">
              <rect id="area-4" data-name="area" width="60" height="60" transform="translate(1017 2120)" fill="none"/>
              <text id="_3" data-name="3" transform="translate(1047 2161)" fill="#abb0b0" font-size="30" font-family="Roboto-Regular, Roboto" opacity="0.99"><tspan x="-8.423" y="0">3</tspan></text>
            </g>
            <circle id="타원_79-2" data-name="타원 79" cx="3" cy="3" r="3" transform="translate(987 2105)" fill="#d0d5d5"/>
          </g>
          <g transform="translate(-843 -2078)">
            <g id="num-3" data-name="num" transform="translate(-24 -42)">
              <rect id="area-5" data-name="area" width="60" height="60" transform="translate(1017 2120)" fill="none"/>
              <text id="_4" data-name="4" transform="translate(1047 2161)" fill="#abb0b0" font-size="30" font-family="Roboto-Regular, Roboto" opacity="0.99"><tspan x="-8.423" y="0">4</tspan></text>
            </g>
            <circle id="타원_79-3" data-name="타원 79" cx="3" cy="3" r="3" transform="translate(987 2105)" fill="#d0d5d5"/>
          </g>
          <g transform="translate(-771 -2078)">
            <g id="num-4" data-name="num" transform="translate(-24 -42)">
              <rect id="area-6" data-name="area" width="60" height="60" transform="translate(1017 2120)" fill="none"/>
              <text id="_5" data-name="5" transform="translate(1047 2161)" fill="#abb0b0" font-size="30" font-family="Roboto-Regular, Roboto" opacity="0.99"><tspan x="-8.423" y="0">5</tspan></text>
            </g>
            <circle id="타원_79-4" data-name="타원 79" cx="3" cy="3" r="3" transform="translate(987 2105)" fill="#d0d5d5"/>
          </g>
        </g>
        <g id="num-5" data-name="num" transform="translate(-121 -42)">
          <rect id="area-7" data-name="area" width="60" height="60" transform="translate(1017 2120)" fill="none"/>
          <text id="_1" data-name="1" transform="translate(1047 2161)" fill="#575757" font-size="30" font-family="Roboto-Medium, Roboto" font-weight="500" opacity="0.99"><tspan x="-8.525" y="0">1</tspan></text>
        </g>
        <g id="_3-2" data-name="&lt;" transform="translate(-61)">
          <g id="bg-3" data-name="bg" transform="translate(877 2078)" fill="#fff" stroke="#d0d5d5" stroke-width="2">
            <circle cx="30" cy="30" r="30" stroke="none"/>
            <circle cx="30" cy="30" r="29" fill="none"/>
          </g>
          <g id="icon-4" data-name="icon" transform="translate(3428 1363) rotate(90)">
            <rect id="area-8" data-name="area" width="60" height="60" transform="translate(715 2491)" fill="none"/>
            <path id="패스_250-3" data-name="패스 250" d="M-1445.5,1867.5l7.8,7.8,7.8-7.8" transform="translate(2182.7 649.6)" fill="none" stroke="#7f7f7f" stroke-width="3"/>
          </g>
        </g>
        <g id="_4-2" data-name="&lt;&lt;" transform="translate(-71)">
          <g id="bg-4" data-name="bg" transform="translate(817 2078)" fill="#fff" stroke="#d0d5d5" stroke-width="2">
            <circle cx="30" cy="30" r="30" stroke="none"/>
            <circle cx="30" cy="30" r="29" fill="none"/>
          </g>
          <g id="icon-5" data-name="icon" transform="translate(3368 1363) rotate(90)">
            <rect id="area-9" data-name="area" width="60" height="60" transform="translate(715 2491)" fill="none"/>
            <g id="icon-6" data-name="icon" transform="translate(736.6 2514.55)">
              <path id="패스_250-4" data-name="패스 250" d="M-1445.5,1867.5l7.8,7.8,7.8-7.8" transform="translate(1446.1 -1867.5)" fill="none" stroke="#7f7f7f" stroke-width="3"/>
              <line id="선_205-2" data-name="선 205" x2="16.8" transform="translate(0 12.9)" fill="none" stroke="#7f7f7f" stroke-width="3"/>
            </g>
          </g>
        </g>
      </g>
      <g id="그룹_18694" data-name="그룹 18694">
        <g id="list" transform="translate(2 -659)">
          <g id="bg-5" data-name="bg" transform="translate(0 -9)">
            <rect id="area-10" data-name="area" width="648" height="120" transform="translate(530 1207)" fill="none"/>
            <rect id="line" width="648" height="2" transform="translate(530 1327)" fill="#d0d5d5"/>
          </g>
          <text id="이북5도위원회는_어디에_있나요_" data-name="이북5도위원회는 어디에 있나요? " transform="translate(610 1238)" font-size="28" font-family="NotoSansCJKkr-Regular, Noto Sans CJK KR" letter-spacing="-0.05em" opacity="0.99"><tspan x="0" y="32">이북5도위원회는 어디에 있나요? </tspan></text>
          <text id="_Q" data-name=" Q" transform="translate(530 1240)" font-size="30" font-family="Roboto-Bold, Roboto" font-weight="700" opacity="0.99"><tspan x="0" y="31" xml:space="preserve"> Q</tspan></text>
          <path id="패스_8643" data-name="패스 8643" d="M-546,2005.745l11-12,11,12" transform="translate(612.5 3259.245) rotate(180)" fill="none" stroke="#000" stroke-linecap="round" stroke-width="4"/>
        </g>
        <g id="list-2" data-name="list" transform="translate(2 -537)">
          <g id="bg-6" data-name="bg" transform="translate(0 -9)">
            <rect id="area-11" data-name="area" width="648" height="120" transform="translate(530 1207)" fill="none"/>
            <rect id="line-2" data-name="line" width="648" height="2" transform="translate(530 1327)" fill="#d0d5d5"/>
          </g>
          <text id="시설예약을_하려면_어떻게_해야하나요_" data-name="시설예약을 하려면 어떻게 해야하나요?" transform="translate(610 1238)" font-size="28" font-family="NotoSansCJKkr-Regular, Noto Sans CJK KR" letter-spacing="-0.05em" opacity="0.99"><tspan x="0" y="32">시설예약을 하려면 어떻게 해야하나요?</tspan></text>
          <text id="_Q-2" data-name=" Q" transform="translate(530 1240)" font-size="30" font-family="Roboto-Bold, Roboto" font-weight="700" opacity="0.99"><tspan x="0" y="31" xml:space="preserve"> Q</tspan></text>
          <path id="패스_8643-2" data-name="패스 8643" d="M-546,2005.745l11-12,11,12" transform="translate(612.5 3259.245) rotate(180)" fill="none" stroke="#000" stroke-linecap="round" stroke-width="4"/>
        </g>
        <g id="list-3" data-name="list" transform="translate(532 783)">
          <g id="bg-7" data-name="bg" transform="translate(-530 -1207)">
            <rect id="area-12" data-name="area" width="648" height="120" transform="translate(530 1207)" fill="none"/>
            <rect id="line-3" data-name="line" width="648" height="2" transform="translate(530 1327)" fill="#d0d5d5"/>
          </g>
          <text id="전시실은_공개되어있는_장소인가요_" data-name="전시실은 공개되어있는 장소인가요?" transform="translate(80 40)" fill="#188fef" font-size="28" font-family="NotoSansCJKkr-Medium, Noto Sans CJK KR" font-weight="500" letter-spacing="-0.05em" opacity="0.99"><tspan x="0" y="32">전시실은 공개되어있는 장소인가요?</tspan></text>
          <text id="_Q-3" data-name=" Q" transform="translate(0 42)" fill="#188fef" font-size="30" font-family="Roboto-Bold, Roboto" font-weight="700" opacity="0.99"><tspan x="0" y="31" xml:space="preserve"> Q</tspan></text>
          <path id="패스_8643-3" data-name="패스 8643" d="M0,0,11,12,22,0" transform="translate(628.5 67.5) rotate(180)" fill="none" stroke="#188fef" stroke-linecap="round" stroke-width="4"/>
        </g>
        <g id="a" transform="translate(2 -293)">
          <g id="bg-8" data-name="bg" transform="translate(0 -9)">
            <rect id="area-13" data-name="area" width="648" height="162" transform="translate(530 1207)" fill="#fff"/>
            <rect id="line-4" data-name="line" width="648" height="2" transform="translate(530 1369)" fill="#d0d5d5"/>
          </g>
          <text id="국민_모두에게_공개되어있는_장소이며_월_금_09:00_18:00_까지_방문_가능합니다." data-name="국민 모두에게 공개되어있는 장소이며, 
월~금 09:00 ~ 18:00 까지 방문 가능합니다." transform="translate(610 1238)" fill="#575757" font-size="28" font-family="NotoSansCJKkr-Regular, Noto Sans CJK KR" letter-spacing="-0.05em" opacity="0.99"><tspan x="0" y="32">국민 모두에게 공개되어있는 장소이며, </tspan><tspan x="0" y="73">월~금 09:00 ~ 18:00 까지 방문 가능합니다.</tspan></text>
          <text id="_A" data-name=" A" transform="translate(530 1240)" fill="#999" font-size="30" font-family="Roboto-Bold, Roboto" font-weight="700" opacity="0.99"><tspan x="0" y="31" xml:space="preserve"> A</tspan></text>
        </g>
      </g>
      <rect id="line-5" data-name="line" width="648" height="4" transform="translate(532 535)" fill="#575757"/>
      <g id="top">
        <g id="total" transform="translate(-118 -1569)">
          <text id="전체" transform="translate(650 2076)" fill="#575757" font-size="26" font-family="NotoSansCJKkr-Regular, Noto Sans CJK KR" letter-spacing="-0.05em" opacity="0.99"><tspan x="0" y="0">전체</tspan></text>
          <text id="건" transform="translate(759 2076)" fill="#575757" font-size="26" font-family="NotoSansCJKkr-Regular, Noto Sans CJK KR" letter-spacing="-0.05em" opacity="0.99"><tspan x="0" y="0">건</tspan></text>
          <text id="_150" data-name="150" transform="translate(707 2046)" font-size="30" font-family="Roboto-Medium, Roboto" font-weight="500" opacity="0.99"><tspan x="0" y="31">150</tspan></text>
        </g>
        <rect id="bg-9" data-name="bg" width="648" height="150" transform="translate(532 297)" fill="#fff"/>
        <g id="search" transform="translate(-570 -1761)">
          <g id="btn" transform="translate(1630 2097)">
            <rect id="bg-10" data-name="bg" width="80" height="80" fill="#003764"/>
            <g id="icon-7" data-name="icon">
              <rect id="area-14" data-name="area" width="80" height="80" fill="none"/>
              <path id="icon-8" data-name="icon" d="M302.554,300.383l-7.71-7.71a17.7,17.7,0,1,0-2.256,2.257l7.709,7.71ZM270.993,291.6a14.508,14.508,0,1,1,10.258,4.25A14.413,14.413,0,0,1,270.993,291.6Z" transform="translate(-243.054 -243.139)" fill="#fff"/>
            </g>
          </g>
          <g id="input" transform="translate(1332 2097)" fill="#fff" stroke="#d0d5d5" stroke-width="2">
            <rect width="298" height="80" stroke="none"/>
            <rect x="1" y="1" width="296" height="78" fill="none"/>
          </g>
          <g id="select" transform="translate(1142 2097)">
            <g id="bg-11" data-name="bg" fill="#fff" stroke="#d0d5d5" stroke-width="2">
              <rect width="180" height="80" stroke="none"/>
              <rect x="1" y="1" width="178" height="78" fill="none"/>
            </g>
            <g id="icon-9" data-name="icon" transform="translate(100)">
              <rect id="area-15" data-name="area" width="80" height="80" fill="none"/>
              <path id="패스_250-5" data-name="패스 250" d="M-1445.5,1867.5l10.4,10.4,10.4-10.4" transform="translate(1475.1 -1832.7)" fill="none" stroke="#7f7f7f" stroke-width="4"/>
            </g>
            <text id="질문" transform="translate(20 51)" fill="#999" font-size="26" font-family="NotoSansCJKkr-Regular, Noto Sans CJK KR" letter-spacing="-0.05em" opacity="0.99"><tspan x="0" y="0">질문</tspan></text>
          </g>
        </g>
      </g>
    </g>
  </g>
</svg>
