<svg xmlns="http://www.w3.org/2000/svg" width="1001.049" height="700.998" viewBox="0 0 1001.049 700.998">
  <path id="패스_8573" data-name="패스 8573" d="M4407.173,4470.8c-37.939-45.092-55.217-110.932-58.256-165.707-3.993-71.978,17.087-144.481,52.793-209.011,47.376-85.619,133.821-153.814,234.414-189.284,47.9-16.891,104.385-30.909,155.769-24.92,147.854,17.231,292.325,62.281,416.5,134.931,66.458,38.882,118.939,99.952,135.384,169.026,10.584,44.464,3.311,93.429-23.614,132.822-28.78,42.1-64.96,76.575-83.2,124.324-10.619,27.807-15.877,57.542-32.461,83.024-46.623,71.633-158.761,56.431-236.028,43.764-127.572-20.914-258.8-30.741-388.4-43.7-54.383-5.438-135.634-11.838-171.763-53.922Q4407.741,4471.479,4407.173,4470.8Z" transform="translate(-4347.928 -3879.974)" fill="none" stroke="#188fef" stroke-width="1"/>
</svg>
