<svg xmlns="http://www.w3.org/2000/svg" width="1146.762" height="912.168" viewBox="0 0 1146.762 912.168">
  <path id="패스_8571" data-name="패스 8571" d="M-751.468,4955.835c-114.71-16.769-226.175-71.353-307.857-149.305-72.286-68.985-121.447-162.434-115.037-264.341a205.643,205.643,0,0,1,10.227-53.286c20.5-60.308,87.369-82.291,145.462-84.347,74.583-2.64,144.3,31.273,218.773,33.408,61.386,1.761,117.291-22.667,165.156-59.281,39.692-30.361,77.33-61.228,125.477-77.148a274.189,274.189,0,0,1,150.323-6.234c76.353,18.692,144.817,70.152,175.109,143.628,33.155,80.421,3.409,176.3-35.714,249.13-76.021,141.52-214.358,233.891-370.108,264.728C-642.457,4963.241-697.324,4963.75-751.468,4955.835Z" transform="matrix(0.966, 0.259, -0.259, 0.966, 2419.598, -3836.852)" fill="none" stroke="#e4032e" stroke-width="1"/>
</svg>
