<svg xmlns="http://www.w3.org/2000/svg" xmlns:xlink="http://www.w3.org/1999/xlink" width="46" height="46" viewBox="0 0 46 46">
  <defs>
    <clipPath id="clip-path">
      <rect id="사각형_24108" data-name="사각형 24108" width="42" height="41.999" fill="#fff"/>
    </clipPath>
  </defs>
  <g id="icon" transform="translate(-110 -65)">
    <rect id="area" width="46" height="46" transform="translate(110 65)" fill="none"/>
    <g id="icon-2" data-name="icon">
      <g id="그룹_18640" data-name="그룹 18640" transform="translate(114 69)">
        <g id="그룹_18639" data-name="그룹 18639" transform="translate(0 0)" clip-path="url(#clip-path)">
          <path id="패스_8559" data-name="패스 8559" d="M42,39.569l-8.3-8.3A19.058,19.058,0,0,0,19.06,0,19.061,19.061,0,0,0,5.582,32.538,19.054,19.054,0,0,0,31.267,33.7l8.3,8.3ZM8.012,30.109a15.625,15.625,0,1,1,22.1-22.1,15.625,15.625,0,1,1-22.1,22.1" transform="translate(0 0)" fill="#fff"/>
        </g>
      </g>
      <rect id="사각형_24109" data-name="사각형 24109" width="3.029" height="12.117" transform="translate(131.671 82.127)" fill="#fff"/>
      <rect id="사각형_24110" data-name="사각형 24110" width="3.029" height="12.117" transform="translate(139.245 86.671) rotate(90)" fill="#fff"/>
    </g>
  </g>
</svg>
