<svg xmlns="http://www.w3.org/2000/svg" xmlns:xlink="http://www.w3.org/1999/xlink" width="100.77" height="100" viewBox="0 0 100.77 100">
  <defs>
    <filter id="패스_8166" x="0.174" y="8.407" width="97.36" height="89.5" filterUnits="userSpaceOnUse">
      <feOffset dy="8" input="SourceAlpha"/>
      <feGaussianBlur stdDeviation="4" result="blur"/>
      <feFlood flood-opacity="0.161"/>
      <feComposite operator="in" in2="blur"/>
      <feComposite in="SourceGraphic"/>
    </filter>
  </defs>
  <g id="img" transform="translate(-529.23 -487)">
    <rect id="area" width="100" height="100" transform="translate(530 487)" fill="none"/>
    <path id="패스_8168" data-name="패스 8168" d="M25.623,62.834A44,44,0,0,1,7.8,52.192C2.491,46.74-3.266,38.331,2.225,31.084,4.9,27.558,9.18,26.511,13.145,25.153A80.015,80.015,0,0,0,34.1,14.388,73.3,73.3,0,0,0,43.08,6.726c2.843-2.854,5.011-5.481,9.208-6.383,6.963-1.5,18.159,1.877,17.544,10.611-.186,2.64-1.716,4.641-2.514,7.1a20.685,20.685,0,0,0-.946,8.075c.554,6.626,6.608,11.3,6.963,17.947C74.095,58.29,57.444,64.222,45.9,65.307A50.466,50.466,0,0,1,25.623,62.834Z" transform="translate(530 520.82) rotate(-25)" fill="none" stroke="#cc1717" stroke-miterlimit="10" stroke-width="1"/>
    <path id="패스_8167" data-name="패스 8167" d="M25.623,62.834A44,44,0,0,1,7.8,52.192C2.491,46.74-3.266,38.331,2.225,31.084,4.9,27.558,9.18,26.511,13.145,25.153A80.015,80.015,0,0,0,34.1,14.388,73.3,73.3,0,0,0,43.08,6.726c2.843-2.854,5.011-5.481,9.208-6.383,6.963-1.5,18.159,1.877,17.544,10.611-.186,2.64-1.716,4.641-2.514,7.1a20.685,20.685,0,0,0-.946,8.075c.554,6.626,6.608,11.3,6.963,17.947C74.095,58.29,57.444,64.222,45.9,65.307A50.466,50.466,0,0,1,25.623,62.834Z" transform="matrix(0.259, 0.966, -0.966, 0.259, 604.673, 490.593)" fill="#188fef" opacity="0.1"/>
    <g transform="matrix(1, 0, 0, 1, 529.23, 487)" filter="url(#패스_8166)">
      <path id="패스_8166-2" data-name="패스 8166" d="M309.927,749.317A44,44,0,0,1,292.1,738.675c-5.306-5.452-11.063-13.861-5.571-21.108,2.671-3.526,6.954-4.573,10.919-5.931A80.013,80.013,0,0,0,318.4,700.871a73.294,73.294,0,0,0,8.982-7.662c2.843-2.854,5.011-5.481,9.208-6.383,6.963-1.5,18.159,1.877,17.544,10.611-.186,2.641-1.716,4.641-2.514,7.1a20.684,20.684,0,0,0-.946,8.075c.554,6.626,6.608,11.3,6.963,17.947.76,14.212-15.891,20.144-27.432,21.229A50.465,50.465,0,0,1,309.927,749.317Z" transform="translate(-272.13 -674.08)" fill="#188fef"/>
    </g>
    <path id="합치기_18" data-name="합치기 18" d="M-14337.232-4120.157a12.735,12.735,0,0,0,7.055-11.4,11.543,11.543,0,0,0-11.547-11.54c-4.709,0-9.289,3.171-9.289,7.746a4.155,4.155,0,0,0,.127,1,.358.358,0,0,1,.014.062c.008.018.011.032.019.054a4.934,4.934,0,0,0,4.767,3.614,4.921,4.921,0,0,0,4.093-2.27,4.905,4.905,0,0,1,6.976-1.459,5.4,5.4,0,0,1,1.841,6.507,11.234,11.234,0,0,1-10.921,7.354c-6.914,0-11.9-5.916-11.9-12.826a14,14,0,0,1,14-14,14.009,14.009,0,0,1,13.251,9.458c.015.05.032.1.051.151a11.229,11.229,0,0,0-1.826-3.169,10.814,10.814,0,0,1,1.912,3.44,13.892,13.892,0,0,1,.612,4.122,14,14,0,0,1-9.23,13.168Zm-13.907-16.148c0-4.392,4.511-9.284,11-9.284h0C-14346.629-4145.59-14351.14-4140.7-14351.14-4136.306Zm20.6-4.6-.048-.06Zm-.08-.1-.034-.042Zm-.072-.088-.03-.036Zm-.073-.087-.024-.029Zm-.076-.088-.018-.021Zm-.077-.089-.008-.01Zm-.077-.087h0Zm-6.093-3.771h0Zm-.131-.033-.011,0Zm-.134-.032-.014,0Zm-.133-.03-.021,0Zm-.135-.029-.027-.006Zm-.135-.027-.037-.007Zm-.139-.026-.041-.007Zm-.141-.025-.045-.007Zm-.143-.023-.046-.007Zm-.143-.021-.051-.007Zm-.146-.021-.05-.007Zm-.146-.019-.056-.007Zm-.146-.017-.062-.006Zm-.147-.015-.066-.006Zm-.15-.014-.07-.006Zm-.148-.012-.082-.006Zm-.152-.01-.078,0Zm-.155-.009-.077,0Zm-.154-.006-.088,0Zm-.154,0-.115,0Z" transform="translate(14924.533 4670.738)" fill="#fff" stroke="rgba(0,0,0,0)" stroke-miterlimit="10" stroke-width="1"/>
  </g>
</svg>
