<svg xmlns="http://www.w3.org/2000/svg" xmlns:xlink="http://www.w3.org/1999/xlink" width="189.873" height="182.26" viewBox="0 0 189.873 182.26">
  <defs>
    <filter id="패스_8166" x="11.671" y="15.962" width="170.72" height="155" filterUnits="userSpaceOnUse">
      <feOffset dy="8" input="SourceAlpha"/>
      <feGaussianBlur stdDeviation="4" result="blur"/>
      <feFlood flood-opacity="0.161"/>
      <feComposite operator="in" in2="blur"/>
      <feComposite in="SourceGraphic"/>
    </filter>
  </defs>
  <g id="그룹_18656" data-name="그룹 18656" transform="translate(-529.137 -491.852)">
    <path id="패스_8168" data-name="패스 8168" d="M335.55,812.152c-13.088-4.3-25.9-11.263-35.653-21.285-10.611-10.9-22.125-27.721-11.142-42.217,5.343-7.051,13.909-9.146,21.839-11.861a160.031,160.031,0,0,0,41.908-21.53,146.589,146.589,0,0,0,17.964-15.323c5.687-5.707,10.021-10.962,18.415-12.766,13.926-2.993,36.318,3.753,35.087,21.222-.372,5.281-3.432,9.283-5.028,14.2a41.37,41.37,0,0,0-1.891,16.151c1.107,13.252,13.215,22.6,13.926,35.894,1.519,28.423-31.782,40.289-54.864,42.459A100.932,100.932,0,0,1,335.55,812.152Z" transform="translate(-17.787 52.627) rotate(-25)" fill="none" stroke="#cc1717" stroke-miterlimit="10" stroke-width="1"/>
    <path id="패스_8167" data-name="패스 8167" d="M335.55,812.152c-13.088-4.3-25.9-11.263-35.653-21.285-10.611-10.9-22.125-27.721-11.142-42.217,5.343-7.051,13.909-9.146,21.839-11.861a160.031,160.031,0,0,0,41.908-21.53,146.589,146.589,0,0,0,17.964-15.323c5.687-5.707,10.021-10.962,18.415-12.766,13.926-2.993,36.318,3.753,35.087,21.222-.372,5.281-3.432,9.283-5.028,14.2a41.37,41.37,0,0,0-1.891,16.151c1.107,13.252,13.215,22.6,13.926,35.894,1.519,28.423-31.782,40.289-54.864,42.459A100.932,100.932,0,0,1,335.55,812.152Z" transform="matrix(0.259, 0.966, -0.966, 0.259, 1268.854, 41.895)" fill="#188fef" opacity="0.1"/>
    <g transform="matrix(1, 0, 0, 1, 529.14, 491.85)" filter="url(#패스_8166)">
      <path id="패스_8166-2" data-name="패스 8166" d="M335.55,812.152c-13.088-4.3-25.9-11.263-35.653-21.285-10.611-10.9-22.125-27.721-11.142-42.217,5.343-7.051,13.909-9.146,21.839-11.861a160.031,160.031,0,0,0,41.908-21.53,146.589,146.589,0,0,0,17.964-15.323c5.687-5.707,10.021-10.962,18.415-12.766,13.926-2.993,36.318,3.753,35.087,21.222-.372,5.281-3.432,9.283-5.028,14.2a41.37,41.37,0,0,0-1.891,16.151c1.107,13.252,13.215,22.6,13.926,35.894,1.519,28.423-31.782,40.289-54.864,42.459A100.932,100.932,0,0,1,335.55,812.152Z" transform="translate(-260.63 -666.52)" fill="#188fef"/>
    </g>
  </g>
</svg>
